<svg xmlns="http://www.w3.org/2000/svg" xmlns:xlink="http://www.w3.org/1999/xlink" viewBox="0 0 723.06 146.65"><defs><linearGradient id="f02e31ab-613f-4477-9e85-c3fe6a3712f4" x1="116.76" y1="145.65" x2="116.76" y2="1" gradientUnits="userSpaceOnUse"><stop offset="0" stop-color="#046937"/><stop offset="0.22" stop-color="#076d38"/><stop offset="0.46" stop-color="#107a3b"/><stop offset="0.69" stop-color="#208e40"/><stop offset="0.93" stop-color="#36ab48"/><stop offset="1" stop-color="#3db54a"/></linearGradient><linearGradient id="b6c8b8d2-4ed5-4afe-b1ec-7524dbabce18" x1="491.13" y1="145.65" x2="491.13" xlink:href="#f02e31ab-613f-4477-9e85-c3fe6a3712f4"/></defs><title>Asset 11</title><g id="a7d81ad1-de22-44c8-a759-0d9cba31088e" data-name="Layer 2"><g id="a3610f00-c605-4e83-a2b1-0e4e2c46b6a7" data-name="Layer 1"><path d="M162.53,145.65a14.45,14.45,0,0,1-9.74-3.69,15,15,0,0,1-10,3.69H127.3a14.69,14.69,0,0,1-10.48-4.28,13.86,13.86,0,0,1-1.53-1.8,13.86,13.86,0,0,1-1.53,1.8,14.68,14.68,0,0,1-10.48,4.28H87.83a14.51,14.51,0,0,1-14.91-14.76V45.32a15,15,0,0,1-2,.13h-5v85.44A14.41,14.41,0,0,1,51.2,145.65H35.54a14.44,14.44,0,0,1-14.76-14.76V45.45h-5A14.58,14.58,0,0,1,1,30.7v-15A14.39,14.39,0,0,1,15.75,1H70.91A14.39,14.39,0,0,1,85.66,15.68v.41a15.94,15.94,0,0,1,2.17-.15h15.45a14.52,14.52,0,0,1,12,6.08,14.52,14.52,0,0,1,12-6.08h15.46a15,15,0,0,1,10,3.68,14.49,14.49,0,0,1,9.74-3.68h55.23A14.43,14.43,0,0,1,232.51,30.7v15a14.5,14.5,0,0,1-14.75,14.9h-2a14.6,14.6,0,0,1,7.87,13.3V88.78a14.82,14.82,0,0,1-6.4,12.42h.51a14.13,14.13,0,0,1,14.75,14.68v15a14.43,14.43,0,0,1-14.75,14.76Z" fill="url(#f02e31ab-613f-4477-9e85-c3fe6a3712f4)"/><path d="M70.91,2A13.41,13.41,0,0,1,84.66,15.68v1.6a15.55,15.55,0,0,1,3.17-.34h15.45a13.52,13.52,0,0,1,12,6.94,13.34,13.34,0,0,1,2.24-3,13.68,13.68,0,0,1,9.77-4h15.46a13.91,13.91,0,0,1,10,4.07,13.41,13.41,0,0,1,9.73-4.07h55.23A13.45,13.45,0,0,1,231.51,30.7v15a13.52,13.52,0,0,1-13.75,13.9H209V60h0c7.84,0,13.61,6,13.61,13.9V88.78a13.52,13.52,0,0,1-10,13.42h5.1a13.12,13.12,0,0,1,13.75,13.68v15a13.46,13.46,0,0,1-13.75,13.76H162.53a13.43,13.43,0,0,1-9.73-4.07,13.93,13.93,0,0,1-10,4.07H127.3a13.72,13.72,0,0,1-9.77-4,13.34,13.34,0,0,1-2.24-3,13.52,13.52,0,0,1-12,6.94H87.83a13.53,13.53,0,0,1-13.91-13.76V44.14a14.67,14.67,0,0,1-3,.31h-6v86.44A13.43,13.43,0,0,1,51.2,144.65H35.54a13.46,13.46,0,0,1-13.76-13.76V44.45h-6A13.59,13.59,0,0,1,2,30.7v-15A13.41,13.41,0,0,1,15.75,2H70.91m0-2H15.75A15.37,15.37,0,0,0,0,15.68v15A15.57,15.57,0,0,0,15.75,46.45h4v84.44a15.41,15.41,0,0,0,15.76,15.76H51.2a15.39,15.39,0,0,0,15.69-15.76V46.45h4c.33,0,.67,0,1,0v84.47a15.49,15.49,0,0,0,15.91,15.76h15.45a15.67,15.67,0,0,0,11.19-4.57,11.52,11.52,0,0,0,.82-.89c.26.31.54.61.82.89a15.68,15.68,0,0,0,11.19,4.57h15.46a16.1,16.1,0,0,0,10-3.38,15.47,15.47,0,0,0,9.74,3.38h55.23a15.41,15.41,0,0,0,15.75-15.76v-15a15.53,15.53,0,0,0-4.44-11.29,15.17,15.17,0,0,0-9.16-4.28,15.94,15.94,0,0,0,4.74-11.53V73.91a15.75,15.75,0,0,0-5.6-12.34,15.47,15.47,0,0,0,14.46-15.86v-15a15.41,15.41,0,0,0-15.75-15.76H162.53a15.47,15.47,0,0,0-9.74,3.38,16.1,16.1,0,0,0-10-3.38H127.3a15.68,15.68,0,0,0-11.19,4.57c-.28.28-.56.58-.82.89a11.52,11.52,0,0,0-.82-.89,15.67,15.67,0,0,0-11.19-4.57H87.83c-.39,0-.79,0-1.18,0A15.35,15.35,0,0,0,70.91,0Z" fill="#fff"/><path d="M652.08,145.65a14.42,14.42,0,0,1-13.65-9.44l-.33.33c-6,6-14.4,9.11-24.83,9.11H596.42c-10.44,0-18.8-3.07-24.84-9.11a28.52,28.52,0,0,1-4.27-5.47,29,29,0,0,1-4.31,5.46c-6.09,6.05-14.41,9.12-24.73,9.12H521.42c-8.18,0-15.13-1.9-20.65-5.66a14.72,14.72,0,0,1-11.86,5.66H474.16a14.58,14.58,0,0,1-14.39-11.71l-2.29-9.31h-9L446.23,134a14.62,14.62,0,0,1-14.46,11.63H416.92a15.5,15.5,0,0,1-6.73-1.51,15.12,15.12,0,0,1-6.69,1.51H348.27a14.51,14.51,0,0,1-9.71-3.66,14.82,14.82,0,0,1-9.91,3.66H275a14.44,14.44,0,0,1-14.76-14.76V15.68A14.4,14.4,0,0,1,275,1h15.6a14.4,14.4,0,0,1,14.76,14.68V101.2h23.33a15.36,15.36,0,0,1,5,.82V30.7a14.75,14.75,0,0,1,4-10.23,14.42,14.42,0,0,1,10.61-4.53H403.5A14.43,14.43,0,0,1,418.25,30.7v15a14.5,14.5,0,0,1-14.75,14.9h-2a14.6,14.6,0,0,1,7.87,13.3V88.78A14.82,14.82,0,0,1,403,101.2h.51a16.09,16.09,0,0,1,5.79,1l18.53-74.65a14.71,14.71,0,0,1,14.6-11.63h21.14a14.7,14.7,0,0,1,14.6,11.53L487.47,65V49.89c0-10.44,3.07-18.8,9.11-24.84s14.4-9.11,24.84-9.11h16.85c10.32,0,18.64,3.07,24.73,9.11l.56.58a15.49,15.49,0,0,1,3.41-5.2,15.26,15.26,0,0,1,10.85-4.49h14.42a15.26,15.26,0,0,1,10.85,4.49,15.81,15.81,0,0,1,2,2.52,15.36,15.36,0,0,1,12.89-7h13.84a15.22,15.22,0,0,1,10.22,3.9,14.43,14.43,0,0,1,10-3.9h55.23A14.43,14.43,0,0,1,722.06,30.7v15a14.5,14.5,0,0,1-14.75,14.9h-2a14.6,14.6,0,0,1,7.87,13.3V88.78a14.82,14.82,0,0,1-6.4,12.42h.51a14.13,14.13,0,0,1,14.75,14.68v15a14.43,14.43,0,0,1-14.75,14.76Z" fill="url(#b6c8b8d2-4ed5-4afe-b1ec-7524dbabce18)"/><path d="M290.56,2a13.42,13.42,0,0,1,13.76,13.68V102.2h24.33a14.38,14.38,0,0,1,6,1.3V30.7a13.85,13.85,0,0,1,3.71-9.55,13.47,13.47,0,0,1,9.89-4.21H403.5A13.45,13.45,0,0,1,417.25,30.7v15a13.52,13.52,0,0,1-13.75,13.9h-8.72V60h0c7.84,0,13.61,6,13.61,13.9V88.78a13.51,13.51,0,0,1-10,13.42h5.1a14.57,14.57,0,0,1,6.48,1.41l18.81-75.8a13.71,13.71,0,0,1,13.63-10.87h21.14A13.7,13.7,0,0,1,477.19,27.7l11.28,45.47V49.89c0-10.17,3-18.29,8.82-24.13s14-8.82,24.13-8.82h16.85c10,0,18.13,3,24,8.82q.88.89,1.68,1.83a14.29,14.29,0,0,1,13.85-10.65h14.42a14.25,14.25,0,0,1,10.15,4.2A14.54,14.54,0,0,1,605.14,25a14.33,14.33,0,0,1,12.89-8h13.84A14.24,14.24,0,0,1,642,21.14l.1.11.09-.11a13.44,13.44,0,0,1,9.88-4.2h55.23A13.45,13.45,0,0,1,721.06,30.7v15a13.52,13.52,0,0,1-13.75,13.9h-6.72V60h0c7.84,0,11.61,6,11.61,13.9V88.78a13.52,13.52,0,0,1-10,13.42h5.1a13.12,13.12,0,0,1,13.75,13.68v15a13.46,13.46,0,0,1-13.75,13.76H652.08a13.46,13.46,0,0,1-9.9-4.22,13.64,13.64,0,0,1-3.31-6.21c-.47.55-1,1.1-1.47,1.61-5.85,5.85-14,8.82-24.13,8.82H596.42c-10.16,0-18.28-3-24.13-8.82a28,28,0,0,1-5-6.79,28,28,0,0,1-5,6.78c-5.9,5.86-14,8.83-24,8.83H521.42c-8.41,0-15.42-2-20.9-6.05a13.53,13.53,0,0,1-11.61,6.05H474.16a13.57,13.57,0,0,1-13.42-10.93l-2.47-10.09H447.72l-2.47,10.16a13.6,13.6,0,0,1-13.48,10.86H416.92a14.28,14.28,0,0,1-6.73-1.63,14.2,14.2,0,0,1-6.69,1.63H348.27a13.42,13.42,0,0,1-9.71-4.05,13.69,13.69,0,0,1-9.91,4.05H275a13.46,13.46,0,0,1-13.76-13.76V15.68A13.42,13.42,0,0,1,275,2h15.6m0-2H275A15.38,15.38,0,0,0,259.2,15.68V130.89A15.42,15.42,0,0,0,275,146.65h53.69a15.84,15.84,0,0,0,9.91-3.36,15.47,15.47,0,0,0,9.71,3.36H403.5a16.07,16.07,0,0,0,6.7-1.41,16.55,16.55,0,0,0,6.72,1.41h14.85a15.59,15.59,0,0,0,15.43-12.42l2.09-8.6h7.41l2.1,8.57a15.55,15.55,0,0,0,15.36,12.45h14.75A15.79,15.79,0,0,0,501,141.33c5.57,3.53,12.44,5.32,20.45,5.32h16.85c10.59,0,19.15-3.17,25.44-9.41a29.83,29.83,0,0,0,3.59-4.32,30.44,30.44,0,0,0,3.57,4.33c6.24,6.23,14.84,9.4,25.55,9.4h16.85c10.3,0,18.64-2.93,24.82-8.7a15,15,0,0,0,2.64,3.85,15.46,15.46,0,0,0,11.35,4.85h55.23a15.41,15.41,0,0,0,15.75-15.76v-15a15.48,15.48,0,0,0-4.42-11.27,15.18,15.18,0,0,0-9.18-4.3,15.94,15.94,0,0,0,4.74-11.53V73.91a15.77,15.77,0,0,0-5.59-12.34,15.47,15.47,0,0,0,14.45-15.86v-15a15.41,15.41,0,0,0-15.75-15.76H652.08a15.44,15.44,0,0,0-10,3.58,16.22,16.22,0,0,0-10.21-3.58H618a16.23,16.23,0,0,0-11.56,4.79,15.68,15.68,0,0,0-1.33,1.5,17.29,17.29,0,0,0-1.34-1.5,16.21,16.21,0,0,0-11.56-4.79H577.82a16.34,16.34,0,0,0-14.58,9c-6.24-5.95-14.64-9-25-9H521.42c-10.71,0-19.31,3.16-25.55,9.4s-9.4,14.83-9.4,25.55v6.92l-7.34-29.6a15.69,15.69,0,0,0-15.57-12.27H442.42a15.71,15.71,0,0,0-15.58,12.43l-18.26,73.55a16.36,16.36,0,0,0-2.93-.6,16,16,0,0,0,4.74-11.54V73.91a15.77,15.77,0,0,0-5.59-12.34,15.46,15.46,0,0,0,14.45-15.86v-15A15.41,15.41,0,0,0,403.5,14.94H348.27a15.41,15.41,0,0,0-11.34,4.84,15.8,15.8,0,0,0-4.26,10.92v70a16.82,16.82,0,0,0-4-.48H306.32V15.68A15.38,15.38,0,0,0,290.56,0Z" fill="#fff"/><path d="M13.34,30.7v-15a2.1,2.1,0,0,1,2.41-2.34H70.91a2.1,2.1,0,0,1,2.41,2.34v15a2.12,2.12,0,0,1-2.4,2.41H53.55v97.78a2.11,2.11,0,0,1-2.35,2.42H35.54a2.14,2.14,0,0,1-2.43-2.42V33.11H15.75a2.26,2.26,0,0,1-2.41-2.41Z" fill="#fff"/><path d="M85.26,130.89V30.7c0-1.61.86-2.42,2.57-2.42h15.45a2.27,2.27,0,0,1,2.42,2.42V71.2h19.19V30.7a2.27,2.27,0,0,1,2.41-2.42h15.46c1.71,0,2.56.81,2.56,2.42V130.89c0,1.61-.85,2.42-2.56,2.42H127.3a2.34,2.34,0,0,1-1.75-.66,2.38,2.38,0,0,1-.66-1.76V91H105.7v39.91a2.27,2.27,0,0,1-2.42,2.42H87.83C86.12,133.31,85.26,132.5,85.26,130.89Z" fill="#fff"/><path d="M160.26,130.89V30.7a2.47,2.47,0,0,1,.62-1.76,2.18,2.18,0,0,1,1.65-.66h55.23a2.13,2.13,0,0,1,2.41,2.42v15c0,1.71-.8,2.56-2.41,2.56H180.7V71.35h28.2c1.61,0,2.41.85,2.41,2.56V88.78c0,1.71-.8,2.56-2.41,2.56H180.7v22.19h37.06a2.7,2.7,0,0,1,1.9.52,2.57,2.57,0,0,1,.51,1.83v15a2.13,2.13,0,0,1-2.41,2.42H162.53a2.18,2.18,0,0,1-1.65-.66A2.49,2.49,0,0,1,160.26,130.89Z" fill="#fff"/><path d="M272.54,15.68A2.11,2.11,0,0,1,275,13.34h15.6A2.11,2.11,0,0,1,293,15.68v97.85h35.67a2.11,2.11,0,0,1,2.41,2.35v15a2.13,2.13,0,0,1-2.41,2.42H275a2.14,2.14,0,0,1-2.42-2.42Z" fill="#fff"/><path d="M346,130.89V30.7a2.43,2.43,0,0,1,.63-1.76,2.14,2.14,0,0,1,1.64-.66H403.5a2.14,2.14,0,0,1,2.42,2.42v15c0,1.71-.81,2.56-2.42,2.56H366.44V71.35h28.2c1.61,0,2.41.85,2.41,2.56V88.78c0,1.71-.8,2.56-2.41,2.56h-28.2v22.19H403.5a2.68,2.68,0,0,1,1.9.52,2.56,2.56,0,0,1,.52,1.83v15a2.14,2.14,0,0,1-2.42,2.42H348.27a2.14,2.14,0,0,1-1.64-.66A2.45,2.45,0,0,1,346,130.89Z" fill="#fff"/><path d="M414.93,130.75,439.83,30.4a2.4,2.4,0,0,1,2.59-2.12h21.14a2.38,2.38,0,0,1,2.6,2l24.9,100.34a3.49,3.49,0,0,1,.15.91c0,1.16-.77,1.74-2.3,1.74H474.16a2.3,2.3,0,0,1-2.37-2.15l-4.63-18.87H438.8l-4.59,18.93a2.32,2.32,0,0,1-2.44,2.09H416.92c-1.43,0-2.14-.54-2.14-1.61A3.34,3.34,0,0,1,414.93,130.75ZM443,94.93H462.9l-10-40.77Z" fill="#fff"/><path d="M499.81,111.7V49.89q0-10.62,5.5-16.12t16.11-5.49h16.85q10.47,0,16,5.53t5.56,16.08V61a2.27,2.27,0,0,1-2.42,2.42H543.32A2.11,2.11,0,0,1,541,61V53.69q0-6-6-6h-9.6q-6,0-6,6V108q0,6,6,6H535q6,0,6-6v-13h-7.84a2.14,2.14,0,0,1-2.42-2.42v-15a2.14,2.14,0,0,1,2.42-2.42h24.31a2.14,2.14,0,0,1,2.42,2.42v34.2q0,10.55-5.56,16.08t-16,5.53H521.42q-10.62,0-16.11-5.49T499.81,111.7Z" fill="#fff"/><path d="M574.81,111.7V31.28a3,3,0,0,1,3-3h14.42a3,3,0,0,1,3,3v76.25q0,6,6,6H609q6,0,6-6V31.28a3,3,0,0,1,3-3h13.84a3,3,0,0,1,3,3V111.7q0,10.62-5.49,16.12t-16.11,5.49H596.42q-10.62,0-16.11-5.49T574.81,111.7Z" fill="#fff"/><path d="M649.81,130.89V30.7a2.43,2.43,0,0,1,.63-1.76,2.14,2.14,0,0,1,1.64-.66h55.23a2.14,2.14,0,0,1,2.42,2.42v15c0,1.71-.81,2.56-2.42,2.56H670.25V71.35h28.2c1.61,0,2.41.85,2.41,2.56V88.78c0,1.71-.8,2.56-2.41,2.56h-28.2v22.19h37.06a2.7,2.7,0,0,1,1.9.52,2.56,2.56,0,0,1,.52,1.83v15a2.14,2.14,0,0,1-2.42,2.42H652.08a2.14,2.14,0,0,1-1.64-.66A2.45,2.45,0,0,1,649.81,130.89Z" fill="#fff"/></g></g></svg>