<svg xmlns="http://www.w3.org/2000/svg" xmlns:xlink="http://www.w3.org/1999/xlink" viewBox="0 0 461.88 146.65"><defs><linearGradient id="ba4abc24-3cf2-4c21-aa08-f5ce2f0da372" x1="230.94" y1="145.65" x2="230.94" y2="1" gradientUnits="userSpaceOnUse"><stop offset="0" stop-color="#942b1f"/><stop offset="1" stop-color="#dc1f26"/></linearGradient></defs><title>Asset 10</title><g id="fc711a14-7d66-49e1-8a79-12126ee847aa" data-name="Layer 2"><g id="a392b419-e0b0-4e35-91b3-f0408a0f9e69" data-name="Layer 1"><path d="M391.49,145.65A15.47,15.47,0,0,1,381,141.78a15.43,15.43,0,0,1-10.47,3.87H316.49a15.49,15.49,0,0,1-10.38-3.78A15,15,0,0,1,296,145.65H280.53A14.7,14.7,0,0,1,270,141.37a13.86,13.86,0,0,1-1.53-1.8,13.12,13.12,0,0,1-1.53,1.8,14.66,14.66,0,0,1-10.48,4.28H241.05a14.5,14.5,0,0,1-14-9.53l-.42.43c-6,6-14.37,9.1-24.8,9.1H185c-10.32,0-18.63-3.07-24.71-9.13a28.38,28.38,0,0,1-3.55-4.3,28.49,28.49,0,0,1-3.54,4.32c-6,6-14.4,9.11-24.84,9.11H111.56c-10.44,0-18.8-3.07-24.84-9.11l-.48-.49A13.53,13.53,0,0,1,84,140.26a14.33,14.33,0,0,1-11.63,5.39H56.71a14.68,14.68,0,0,1-12.72-7,14.53,14.53,0,0,1-2.15,2.73,14.69,14.69,0,0,1-10.48,4.28H15.76A14.6,14.6,0,0,1,1,130.89V15.68A14.39,14.39,0,0,1,15.76,1H53.45c10.44,0,18.8,3.06,24.85,9.1a29,29,0,0,1,5.91,8.57A15.14,15.14,0,0,1,93,15.94h14.43a15.27,15.27,0,0,1,10.85,4.49,15.74,15.74,0,0,1,2,2.52,16.31,16.31,0,0,1,2-2.52,15.27,15.27,0,0,1,10.85-4.49H147a15.32,15.32,0,0,1,13.8,8.66c6-5.75,14.18-8.66,24.23-8.66h16.8c10.43,0,18.78,3.07,24.81,9.12l.4.41a14.52,14.52,0,0,1,14-9.53H256.5A14.69,14.69,0,0,1,267,20.21,13.83,13.83,0,0,1,268.51,22a14.52,14.52,0,0,1,12-6.08H296a15.25,15.25,0,0,1,8.48,2.48,29.05,29.05,0,0,1,5.79-8.31c6.05-6,14.4-9.11,24.84-9.11h16.85c10.32,0,18.64,3.07,24.73,9.11A29.35,29.35,0,0,1,381,15.58a28.52,28.52,0,0,1,4.27-5.47c6.05-6,14.4-9.11,24.84-9.11h16.85c10.32,0,18.64,3.07,24.73,9.11s9.21,14.43,9.21,24.83V70.32a17.31,17.31,0,0,1-3.53,10.83,21.21,21.21,0,0,1-7.16,5.65L440.45,92h5.09c8.89,0,15.34,6.45,15.34,15.34v22.93c0,8.89-6.45,15.34-15.34,15.34Z" fill="url(#ba4abc24-3cf2-4c21-aa08-f5ce2f0da372)"/><path d="M426.94,2c10.05,0,18.13,3,24,8.82s8.91,14,8.91,24.12V70.32a16.29,16.29,0,0,1-3.32,10.21,20.28,20.28,0,0,1-6.83,5.39L436.47,93h9.07a13.87,13.87,0,0,1,14.34,14.34v22.93a13.87,13.87,0,0,1-14.34,14.34H391.49A14.31,14.31,0,0,1,381,140.39a14.27,14.27,0,0,1-10.47,4.26H316.49a14.26,14.26,0,0,1-10.38-4.16A13.93,13.93,0,0,1,296,144.65H280.53a13.74,13.74,0,0,1-9.78-4,13.34,13.34,0,0,1-2.24-3,13.52,13.52,0,0,1-12,6.94H241.05a13.5,13.5,0,0,1-13.54-10.54c-.5.6-1,1.18-1.57,1.73-5.84,5.85-13.95,8.81-24.1,8.81H185c-10,0-18.12-3-24-8.84a27.72,27.72,0,0,1-4.25-5.46,27.55,27.55,0,0,1-4.25,5.48c-5.85,5.85-14,8.82-24.13,8.82H111.56c-10.17,0-18.29-3-24.13-8.82-.6-.59-1.15-1.21-1.69-1.85a13.08,13.08,0,0,1-2.53,5.66,13.37,13.37,0,0,1-10.85,5H56.71A13.64,13.64,0,0,1,44,136.47a13.41,13.41,0,0,1-2.85,4.2,13.74,13.74,0,0,1-9.77,4H15.76A13.59,13.59,0,0,1,2,130.89V15.68A13.42,13.42,0,0,1,15.76,2H53.45c10.17,0,18.29,3,24.14,8.81a28.05,28.05,0,0,1,6.21,9.43A14.27,14.27,0,0,1,93,16.94h14.43a14.38,14.38,0,0,1,12.89,8,14.38,14.38,0,0,1,12.89-8H147a14.29,14.29,0,0,1,13.46,9.43c.19-.2.37-.4.57-.59,5.88-5.87,14-8.84,24-8.84h16.8c10.15,0,18.26,3,24.1,8.83.55.55,1.07,1.13,1.57,1.72a13.5,13.5,0,0,1,13.54-10.55H256.5a13.52,13.52,0,0,1,12,6.94,13.34,13.34,0,0,1,2.24-3,13.7,13.7,0,0,1,9.78-4H296a14.1,14.1,0,0,1,8.89,3A28.41,28.41,0,0,1,311,10.81C316.81,5,324.93,2,335.09,2h16.85c10.05,0,18.13,3,24,8.82a28.08,28.08,0,0,1,5,6.79,27.9,27.9,0,0,1,5-6.8C391.81,5,399.93,2,410.09,2h16.85m0-2H410.09c-10.71,0-19.31,3.16-25.54,9.4A29.85,29.85,0,0,0,381,13.73a29.91,29.91,0,0,0-3.59-4.33C371.09,3.16,362.53,0,351.94,0H335.09c-10.71,0-19.31,3.16-25.54,9.4A29.76,29.76,0,0,0,304,17,16.29,16.29,0,0,0,296,14.94H280.53a15.65,15.65,0,0,0-11.19,4.57c-.29.28-.56.58-.83.89a11.52,11.52,0,0,0-.82-.89,15.67,15.67,0,0,0-11.19-4.57H241.05a15.55,15.55,0,0,0-14.35,8.77c-6.17-5.82-14.53-8.77-24.86-8.77H185c-9.79,0-17.84,2.71-23.95,8a15.93,15.93,0,0,0-2.53-3.26A16.21,16.21,0,0,0,147,14.94H133.16a16.21,16.21,0,0,0-11.55,4.79,15.79,15.79,0,0,0-1.34,1.5,17.17,17.17,0,0,0-1.33-1.5,16.23,16.23,0,0,0-11.56-4.79H93a16.36,16.36,0,0,0-8.32,2.28A30.12,30.12,0,0,0,79,9.39C72.77,3.16,64.17,0,53.45,0H15.76A15.37,15.37,0,0,0,0,15.68V130.89a15.61,15.61,0,0,0,15.76,15.76h15.6a15.68,15.68,0,0,0,11.19-4.57A15.16,15.16,0,0,0,44,140.42a15.71,15.71,0,0,0,12.72,6.23H72.36a15.32,15.32,0,0,0,12.42-5.78,14.58,14.58,0,0,0,1.84-3c6.18,5.84,14.57,8.81,24.94,8.81H128.4c10.71,0,19.31-3.17,25.55-9.4a28.94,28.94,0,0,0,2.83-3.3,30.79,30.79,0,0,0,2.84,3.28c6.28,6.25,14.83,9.42,25.42,9.42h16.8c10.34,0,18.7-3,24.87-8.77a15.54,15.54,0,0,0,14.34,8.77H256.5a15.67,15.67,0,0,0,11.19-4.57,11.52,11.52,0,0,0,.82-.89c.27.31.54.61.83.89a15.65,15.65,0,0,0,11.19,4.57H296a16,16,0,0,0,10.14-3.47,16.55,16.55,0,0,0,10.37,3.47h54.05A16.52,16.52,0,0,0,381,143.1a16.57,16.57,0,0,0,10.48,3.55h54.05c9.47,0,16.34-6.87,16.34-16.34V107.38C461.88,97.91,455,91,445.54,91h-1.12l6.26-3.36a22.17,22.17,0,0,0,7.45-5.92,18.21,18.21,0,0,0,3.75-11.44V34.94c0-10.67-3.2-19.27-9.5-25.54S437.53,0,426.94,0Z" fill="#fff"/><path d="M13.34,130.89V15.68a2.11,2.11,0,0,1,2.42-2.34H53.45q10.63,0,16.13,5.49t5.5,16.11V71.49q0,15.09-11,19.85L74.5,130.6c.44,1.81-.28,2.71-2.14,2.71H56.71a2.4,2.4,0,0,1-2.58-2.12L44.1,93.1H33.77v37.79a2.27,2.27,0,0,1-2.41,2.42H15.76a2.27,2.27,0,0,1-2.42-2.42ZM33.77,73.32H48.64q6,0,6-6V39.12q0-6-6-6H33.77Z" fill="#fff"/><path d="M90,111.7V31.28a3,3,0,0,1,3-3h14.43a3,3,0,0,1,3,3v76.25c0,4,2,6,6,6h7.76q6,0,6-6V31.28a3,3,0,0,1,3-3H147a2.89,2.89,0,0,1,2.12.88,2.86,2.86,0,0,1,.88,2.12V111.7q0,10.62-5.49,16.12t-16.12,5.49H111.56q-10.62,0-16.12-5.49T90,111.7Z" fill="#fff"/><path d="M163.48,111.7V102a2.14,2.14,0,0,1,2.42-2.42h15.16a2.14,2.14,0,0,1,2.42,2.42v6.3q0,6,6,6h8q6,0,6-6V93.1l-36-11.72a5.33,5.33,0,0,1-4.11-5.49v-26q0-10.56,5.56-16.08t16-5.53h16.8q10.59,0,16.08,5.49t5.48,16.12v9.88a2.13,2.13,0,0,1-2.4,2.42H206a2.36,2.36,0,0,1-1.75-.66,2.4,2.4,0,0,1-.65-1.76V53.48q0-5.94-6-5.94h-8.2a6.07,6.07,0,0,0-4.43,1.55,5.91,5.91,0,0,0-1.58,4.42v12.9l36.22,11.64a5.42,5.42,0,0,1,3.85,5.56v28.14q0,10.59-5.48,16.08t-16.08,5.48H185q-10.46,0-16-5.53T163.48,111.7Z" fill="#fff"/><path d="M238.48,130.89V30.7c0-1.61.86-2.42,2.57-2.42H256.5a2.27,2.27,0,0,1,2.42,2.42V71.2h19.19V30.7a2.27,2.27,0,0,1,2.42-2.42H296c1.71,0,2.56.81,2.56,2.42V130.89c0,1.61-.85,2.42-2.56,2.42H280.53a2.27,2.27,0,0,1-2.42-2.42V91H258.92v39.91a2.27,2.27,0,0,1-2.42,2.42H241.05C239.34,133.31,238.48,132.5,238.48,130.89Z" fill="#fff"/><path d="M313.48,130.31V86.07a5.46,5.46,0,0,1,.88-3.26,8.41,8.41,0,0,1,3.08-2.31l35.67-19.19V39.12a5.49,5.49,0,0,0-6-6h-7.17q-6,0-6,6V50.84a2.11,2.11,0,0,1-2.42,2.34H315.9a2.11,2.11,0,0,1-2.42-2.34V34.94q0-10.6,5.5-16.11t16.11-5.49h16.85q10.47,0,16,5.53t5.56,16.07V70.32a5.09,5.09,0,0,1-.91,3.22,9.58,9.58,0,0,1-3.19,2.35L336,93.83a4,4,0,0,0-2.12,3.66v13a2.65,2.65,0,0,0,3,3h16.19v-6.15a2.65,2.65,0,0,1,3-3h14.43a2.65,2.65,0,0,1,3,3v22.93a2.65,2.65,0,0,1-3,3H316.49Q313.48,133.31,313.48,130.31Z" fill="#fff"/><path d="M388.48,130.31V86.07a5.46,5.46,0,0,1,.88-3.26,8.41,8.41,0,0,1,3.08-2.31l35.67-19.19V39.12a5.49,5.49,0,0,0-6-6h-7.17q-6,0-6,6V50.84a2.11,2.11,0,0,1-2.42,2.34H390.9a2.11,2.11,0,0,1-2.42-2.34V34.94q0-10.6,5.5-16.11t16.11-5.49h16.85q10.47,0,16,5.53t5.56,16.07V70.32a5.09,5.09,0,0,1-.91,3.22,9.58,9.58,0,0,1-3.19,2.35L411,93.83a4,4,0,0,0-2.12,3.66v13a2.65,2.65,0,0,0,3,3h16.19v-6.15a2.65,2.65,0,0,1,3-3h14.43a2.65,2.65,0,0,1,3,3v22.93a2.65,2.65,0,0,1-3,3H391.49Q388.48,133.31,388.48,130.31Z" fill="#fff"/></g></g></svg>