<svg xmlns="http://www.w3.org/2000/svg" xmlns:xlink="http://www.w3.org/1999/xlink" viewBox="0 0 489.35 146.65"><defs><linearGradient id="a5713527-2886-4930-bebf-b83919e90e22" x1="244.67" y1="145.65" x2="244.67" y2="1" gradientUnits="userSpaceOnUse"><stop offset="0" stop-color="#046937"/><stop offset="0.22" stop-color="#076d38"/><stop offset="0.46" stop-color="#107a3b"/><stop offset="0.69" stop-color="#208e40"/><stop offset="0.93" stop-color="#36ab48"/><stop offset="1" stop-color="#3db54a"/></linearGradient></defs><title>Asset 12</title><g id="b218b047-7a75-463b-b84f-30b091448cdb" data-name="Layer 2"><g id="bbe80e23-fd7c-404c-8780-1b7b9131b5d8" data-name="Layer 1"><path d="M437.6,145.65c-10.4,0-18.76-3.05-24.84-9.06l-.43-.44a14.4,14.4,0,0,1-3.33,5.22,14.68,14.68,0,0,1-10.48,4.28h-15.6a14.37,14.37,0,0,1-13.85-9.52l-.41.42c-6,6-14.38,9.1-24.8,9.1h-16.8c-10.32,0-18.64-3.07-24.71-9.13a28.18,28.18,0,0,1-2.84-3.3,28.57,28.57,0,0,1-2.85,3.33c-6,6-14.37,9.1-24.8,9.1h-16.8c-7.64,0-14.23-1.71-19.6-5.08a14.65,14.65,0,0,1-11.39,5.08H209.32a14.59,14.59,0,0,1-14.4-11.71l-2.28-9.31h-9L181.38,134a14.6,14.6,0,0,1-14.45,11.63H152.08a15.52,15.52,0,0,1-6.77-1.53,15.14,15.14,0,0,1-6.73,1.53H90.9A14.35,14.35,0,0,1,77,136.09l-.43.44c-6.08,6.05-14.4,9.12-24.72,9.12H35.06c-10.4,0-18.76-3.05-24.84-9.06S1,122.17,1,111.7V34.94C1,24.48,4.1,16.1,10.23,10.05S24.66,1,35.06,1H51.89c10.32,0,18.64,3.07,24.72,9.12a29,29,0,0,1,5.87,8.38,14.73,14.73,0,0,1,8.42-2.56h15.6A14.44,14.44,0,0,1,121.26,30.7v70.5h17.32a15.22,15.22,0,0,1,5.84,1.12L163,27.57a14.73,14.73,0,0,1,14.61-11.63h21.14a14.71,14.71,0,0,1,14.6,11.53l7.85,31.62v-9.2c0-10.4,3.09-18.75,9.18-24.82s14.39-9.13,24.71-9.13h16.8c10.43,0,18.78,3.07,24.81,9.12a29,29,0,0,1,2.83,3.31,29.24,29.24,0,0,1,2.85-3.3c6.08-6.06,14.39-9.13,24.71-9.13h16.8c10.43,0,18.77,3.07,24.81,9.12l.39.41a14.39,14.39,0,0,1,13.86-9.53h15.6A14.71,14.71,0,0,1,409,20.21a14.52,14.52,0,0,1,3.33,5.23l.44-.44c6.07-6,14.43-9.06,24.83-9.06h16.83c10.32,0,18.63,3.07,24.72,9.12s9.2,14.43,9.2,24.83V66.07a14.57,14.57,0,0,1-13.73,14.72,14.59,14.59,0,0,1,13.73,14.73V111.7c0,10.4-3.1,18.76-9.2,24.83s-14.4,9.12-24.72,9.12Zm10.17-59.28a14.37,14.37,0,0,1,10.64-5.58,14.33,14.33,0,0,1-10.64-5.57ZM46.11,84.43A14.82,14.82,0,0,1,56,80.76h15a15.15,15.15,0,0,1,5.1.88V65a15.29,15.29,0,0,1-5.1.85H56a14.9,14.9,0,0,1-9.93-3.64Z" fill="url(#a5713527-2886-4930-bebf-b83919e90e22)"/><path d="M51.89,2c10,0,18.12,3,24,8.83a28.38,28.38,0,0,1,6.17,9.23,13.74,13.74,0,0,1,8.82-3.12h15.6A13.46,13.46,0,0,1,120.26,30.7v71.5h18.32a14.27,14.27,0,0,1,6.52,1.53L164,27.81a13.71,13.71,0,0,1,13.63-10.87h21.14A13.7,13.7,0,0,1,212.35,27.7l9.82,39.57V49.89c0-10.13,3-18.24,8.89-24.11s14-8.84,24-8.84h16.8c10.15,0,18.26,3,24.1,8.83a27.82,27.82,0,0,1,3.54,4.35,27.25,27.25,0,0,1,3.55-4.34c5.89-5.87,14-8.84,24-8.84h16.8c10.15,0,18.26,3,24.1,8.83.55.55,1.06,1.12,1.56,1.71a13.39,13.39,0,0,1,13.4-10.54h15.6a13.66,13.66,0,0,1,9.77,4,13.43,13.43,0,0,1,3.59,6.5c.51-.59,1-1.16,1.59-1.71,5.88-5.82,14-8.77,24.13-8.77h16.83c10,0,18.12,3,24,8.83s8.91,14,8.91,24.12V66.07a13.59,13.59,0,0,1-13.76,13.76H459.46a13.36,13.36,0,0,1-12.69-8.41V90.17a13.36,13.36,0,0,1,12.69-8.41h14.13a13.59,13.59,0,0,1,13.76,13.76V111.7c0,10.13-3,18.24-8.9,24.12s-14,8.83-24,8.83H437.6c-10.13,0-18.25-3-24.13-8.77-.56-.55-1.08-1.13-1.59-1.71a13.43,13.43,0,0,1-3.59,6.5,13.7,13.7,0,0,1-9.77,4h-15.6a13.37,13.37,0,0,1-13.39-10.53c-.51.59-1,1.17-1.58,1.72-5.84,5.85-13.94,8.81-24.09,8.81h-16.8c-10.05,0-18.12-3-24-8.84a28.8,28.8,0,0,1-3.55-4.33,27.44,27.44,0,0,1-3.54,4.36c-5.84,5.85-13.95,8.81-24.1,8.81h-16.8c-7.85,0-14.48-1.82-19.82-5.41a13.61,13.61,0,0,1-11.17,5.41H209.32a13.57,13.57,0,0,1-13.42-10.93l-2.48-10.09H182.88l-2.47,10.16a13.61,13.61,0,0,1-13.48,10.86H152.08a14.3,14.3,0,0,1-6.77-1.65,14.23,14.23,0,0,1-6.73,1.65H90.9a13.39,13.39,0,0,1-13.4-10.57c-.51.6-1,1.18-1.59,1.74-5.89,5.86-14,8.83-24,8.83H35.06c-10.13,0-18.25-3-24.13-8.77S2,121.89,2,111.7V34.94c0-10.19,3-18.32,8.93-24.17S24.93,2,35.06,2H51.89M45.11,87A13.58,13.58,0,0,1,56,81.76h15a14,14,0,0,1,6.1,1.39V63.48a14.35,14.35,0,0,1-6.1,1.33H56a13.61,13.61,0,0,1-10.93-5.17V87M51.89,0H35.06C24.39,0,15.8,3.14,9.52,9.34S0,24.2,0,34.94V111.7c0,10.75,3.2,19.36,9.52,25.6s14.87,9.35,25.54,9.35H51.89c10.24,0,18.57-3,24.79-8.8a15.37,15.37,0,0,0,14.22,8.8h47.68a16.44,16.44,0,0,0,6.73-1.42,16.63,16.63,0,0,0,6.77,1.42h14.85a15.6,15.6,0,0,0,15.43-12.42l2.09-8.6h7.4L194,134.2a15.55,15.55,0,0,0,15.36,12.45h14.75a15.76,15.76,0,0,0,11.58-4.79c5.4,3.18,11.92,4.79,19.41,4.79h16.8c10.7,0,19.28-3.16,25.51-9.39a27.32,27.32,0,0,0,2.14-2.4,26.81,26.81,0,0,0,2.13,2.37c6.27,6.25,14.82,9.42,25.42,9.42h16.8c10.33,0,18.68-3,24.85-8.76a15.41,15.41,0,0,0,14.21,8.76h15.6a15.67,15.67,0,0,0,11.19-4.57,15.27,15.27,0,0,0,3-4.19c6.21,5.81,14.59,8.76,24.92,8.76h16.83c10.59,0,19.15-3.17,25.43-9.41s9.49-14.86,9.49-25.54V95.52a15.6,15.6,0,0,0-10-14.73,15.29,15.29,0,0,0,5.46-3.53,15.67,15.67,0,0,0,4.57-11.19V49.89c0-10.68-3.2-19.27-9.49-25.54S465,14.94,454.43,14.94H437.6c-10.33,0-18.71,3-24.92,8.75a15.22,15.22,0,0,0-3-4.18,15.67,15.67,0,0,0-11.19-4.57h-15.6a15.39,15.39,0,0,0-14.21,8.76c-6.17-5.81-14.53-8.76-24.85-8.76h-16.8c-10.59,0-19.14,3.17-25.42,9.42a30.29,30.29,0,0,0-2.14,2.37c-.67-.83-1.38-1.63-2.12-2.38-6.23-6.24-14.82-9.41-25.52-9.41h-16.8c-10.59,0-19.14,3.17-25.42,9.42s-9.47,14.85-9.47,25.53v1l-5.88-23.7a15.69,15.69,0,0,0-15.57-12.27H177.58A15.7,15.7,0,0,0,162,27.37L143.72,101a16.26,16.26,0,0,0-5.14-.8H122.26V30.7A15.41,15.41,0,0,0,106.5,14.94H90.9a16.1,16.1,0,0,0-8,2.13,30.22,30.22,0,0,0-5.57-7.66C71,3.17,62.48,0,51.89,0ZM47.11,82.4V64.19A16.08,16.08,0,0,0,56,66.81h15a16.86,16.86,0,0,0,4.1-.5v14a16.51,16.51,0,0,0-4.1-.52H56a16,16,0,0,0-8.93,2.64Zm401.66,1.39v-6a14.84,14.84,0,0,0,4.88,3,15,15,0,0,0-4.88,3Z" fill="#fff"/><path d="M13.34,111.7V34.94q0-10.6,5.56-16.11t16.16-5.49H51.89q10.45,0,16,5.53t5.56,16.07V51.13a2.11,2.11,0,0,1-2.42,2.35H56a2.11,2.11,0,0,1-2.42-2.35v-12q0-6-6-6H39.8q-6,0-6,6v68.41q0,6,6,6h7.79q6,0,6-6v-12A2.14,2.14,0,0,1,56,93.1h15a2.27,2.27,0,0,1,2.42,2.42V111.7q0,10.55-5.56,16.08t-16,5.53H35.06q-10.61,0-16.16-5.49T13.34,111.7Z" fill="#fff"/><path d="M88.48,30.7a2.27,2.27,0,0,1,2.42-2.42h15.6a2.14,2.14,0,0,1,2.42,2.42v82.83h29.66a2.11,2.11,0,0,1,2.42,2.35v15a2.14,2.14,0,0,1-2.42,2.42H90.9a2.14,2.14,0,0,1-2.42-2.42Z" fill="#fff"/><path d="M150.08,130.75,175,30.4a2.41,2.41,0,0,1,2.6-2.12h21.14a2.38,2.38,0,0,1,2.59,2l24.91,100.34a3.89,3.89,0,0,1,.14.91c0,1.16-.76,1.74-2.29,1.74H209.32a2.31,2.31,0,0,1-2.38-2.15l-4.62-18.87H174l-4.6,18.93a2.3,2.3,0,0,1-2.43,2.09H152.08c-1.43,0-2.14-.54-2.14-1.61A3.31,3.31,0,0,1,150.08,130.75Zm28.09-35.82h19.89l-10-40.77Z" fill="#fff"/><path d="M233.5,111.7V102a2.14,2.14,0,0,1,2.42-2.42h15.16A2.14,2.14,0,0,1,253.5,102v6.3q0,6,6,6h8.05q6,0,6-6V93.1l-36-11.72a5.33,5.33,0,0,1-4.11-5.49v-26q0-10.56,5.56-16.08t16-5.53h16.8q10.59,0,16.08,5.49t5.48,16.12v9.88a2.13,2.13,0,0,1-2.4,2.42H276a2.26,2.26,0,0,1-2.4-2.42V53.48c0-4-2-5.94-6-5.94h-8.2a6,6,0,0,0-4.43,1.55,5.91,5.91,0,0,0-1.58,4.42v12.9l36.22,11.64a5.42,5.42,0,0,1,3.85,5.56v28.14q0,10.59-5.48,16.08t-16.08,5.48h-16.8q-10.45,0-16-5.53T233.5,111.7Z" fill="#fff"/><path d="M305.5,111.7V102a2.14,2.14,0,0,1,2.42-2.42h15.16A2.14,2.14,0,0,1,325.5,102v6.3q0,6,6,6h8.06q6,0,6-6V93.1l-36-11.72a5.33,5.33,0,0,1-4.1-5.49v-26q0-10.56,5.55-16.08t16-5.53h16.8q10.59,0,16.07,5.49t5.48,16.12v9.88a2.13,2.13,0,0,1-2.4,2.42H348a2.27,2.27,0,0,1-2.4-2.42V53.48q0-5.94-6-5.94h-8.2a6.07,6.07,0,0,0-4.44,1.55,5.91,5.91,0,0,0-1.57,4.42v12.9l36.22,11.64a5.41,5.41,0,0,1,3.84,5.56v28.14q0,10.59-5.48,16.08t-16.07,5.48h-16.8q-10.46,0-16-5.53T305.5,111.7Z" fill="#fff"/><path d="M380.5,30.7a2.14,2.14,0,0,1,2.42-2.42h15.6a2.27,2.27,0,0,1,2.42,2.42V130.89a2.27,2.27,0,0,1-2.42,2.42h-15.6a2.14,2.14,0,0,1-2.42-2.42Z" fill="#fff"/><path d="M415.88,111.7V49.89q0-10.62,5.56-16.12t16.16-5.49h16.83q10.45,0,16,5.53T476,49.89V66.07a2.27,2.27,0,0,1-2.42,2.42H459.46a2.11,2.11,0,0,1-2.35-2.42V53.84q0-6-6-6h-9.63q-6,0-6,6v54.42q0,6,6,6h9.63q6,0,6-6V95.52a2.1,2.1,0,0,1,2.35-2.42h14.13A2.27,2.27,0,0,1,476,95.52V111.7q0,10.55-5.56,16.08t-16,5.53H437.6q-10.61,0-16.16-5.49T415.88,111.7Z" fill="#fff"/></g></g></svg>