<svg xmlns="http://www.w3.org/2000/svg" xmlns:xlink="http://www.w3.org/1999/xlink" width="91.122" height="24.772" viewBox="0 0 91.122 24.772">
  <defs>
    <linearGradient id="linear-gradient" x1="0.5" y1="1" x2="0.5" gradientUnits="objectBoundingBox">
      <stop offset="0" stop-color="#ff8008"/>
      <stop offset="1" stop-color="#f09819"/>
    </linearGradient>
  </defs>
  <g id="text_winners" transform="translate(0 -0.169)">
    <path id="Fill_1" data-name="Fill 1" d="M84.891,24.1H82.052A5.514,5.514,0,0,1,78,22.6c-.108-.108-.213-.224-.313-.347a2.194,2.194,0,0,1-.437,1,2.245,2.245,0,0,1-1.818.842H72.943a2.3,2.3,0,0,1-2.161-1.41,2.266,2.266,0,0,1-.494.738,2.311,2.311,0,0,1-1.651.672H66.151a2.333,2.333,0,0,1-1.533-.565,2.319,2.319,0,0,1-1.548.565H53.742a2.275,2.275,0,0,1-1.649-.69l-.006.007-.01.011a2.315,2.315,0,0,1-1.652.672h-2a2.409,2.409,0,0,1-2.188-1.427L45.116,20.4v1.374A2.267,2.267,0,0,1,42.8,24.1H40.417a2.315,2.315,0,0,1-1.652-.672l-.009-.01-.009-.01-.011.012-.008.009a2.315,2.315,0,0,1-1.652.672h-2a2.409,2.409,0,0,1-2.188-1.427L31.766,20.4v1.374A2.267,2.267,0,0,1,29.455,24.1H27.068a2.315,2.315,0,0,1-1.651-.672l-.008-.009L25.4,23.4l-.008.009-.011.012a2.311,2.311,0,0,1-1.651.672H21.092a2.272,2.272,0,0,1-2.323-2.324V18.746l-.36,3.144A2.373,2.373,0,0,1,15.971,24.1H13.485a2.434,2.434,0,0,1-2.418-1.921l-.78-3.393c-.006.029-.561,2.424-.744,3.211l-.054.231A2.43,2.43,0,0,1,7.077,24.1H4.541A2.372,2.372,0,0,1,2.1,21.884L.011,2.654A1.986,1.986,0,0,1,0,2.447V2.373A2.309,2.309,0,0,1,2.4,0h2.43A2.372,2.372,0,0,1,7.178,1.7,2.414,2.414,0,0,1,9.536,0h1.522a2.412,2.412,0,0,1,2.372,1.743A2.368,2.368,0,0,1,15.79,0h2.426a2.31,2.31,0,0,1,2.4,2.373v.074c0,.032,0,.063,0,.1l0,.026a2.537,2.537,0,0,1,.479-.046h2.636a2.311,2.311,0,0,1,1.651.672l.013.014.006.007L25.41,3.2l.006-.007a2.315,2.315,0,0,1,1.652-.672h2A2.409,2.409,0,0,1,31.26,3.951l1.118,2.271V4.847A2.273,2.273,0,0,1,34.7,2.524h2.375a2.315,2.315,0,0,1,1.652.672l.006.007.013.014.019-.022a2.315,2.315,0,0,1,1.651-.672h2a2.409,2.409,0,0,1,2.188,1.427l1.118,2.271V4.847A2.272,2.272,0,0,1,48.05,2.524h2.376a2.315,2.315,0,0,1,1.652.672l.008.009.008.009a2.272,2.272,0,0,1,1.649-.69H63.07a2.318,2.318,0,0,1,1.548.565,2.334,2.334,0,0,1,1.533-.565h6.087a5.535,5.535,0,0,1,4.076,1.489,4.732,4.732,0,0,1,.84,1.147A4.786,4.786,0,0,1,78,4.016a5.517,5.517,0,0,1,4.054-1.492h2.839a5.52,5.52,0,0,1,4.072,1.49,5.542,5.542,0,0,1,1.484,4.075V9.759a2.3,2.3,0,0,1-.916,1.877,2.84,2.84,0,0,1,.916,2.15v4.753a5.527,5.527,0,0,1-1.486,4.071A5.523,5.523,0,0,1,84.891,24.1Z" transform="translate(0.338 0.507)" fill="url(#linear-gradient)"/>
    <path id="Fill_4" data-name="Fill 4" d="M85.228,24.772H82.39a5.874,5.874,0,0,1-4.214-1.514,2.5,2.5,0,0,1-.324.542,2.576,2.576,0,0,1-2.084.972H73.281a2.647,2.647,0,0,1-2.16-1.068,2.525,2.525,0,0,1-.256.3,2.647,2.647,0,0,1-1.89.771H66.488a2.675,2.675,0,0,1-1.533-.475,2.7,2.7,0,0,1-1.548.475H54.079A2.607,2.607,0,0,1,52.43,24.2a2.648,2.648,0,0,1-1.667.572h-2a2.736,2.736,0,0,1-2.49-1.615l-.478-.971a2.607,2.607,0,0,1-2.649,2.587H40.755a2.652,2.652,0,0,1-1.67-.575,2.648,2.648,0,0,1-1.669.575h-2a2.738,2.738,0,0,1-2.491-1.615l-.478-.971a2.605,2.605,0,0,1-2.648,2.587H27.405a2.647,2.647,0,0,1-1.67-.575,2.653,2.653,0,0,1-1.67.575H21.43a2.6,2.6,0,0,1-2.515-1.758,2.692,2.692,0,0,1-2.606,1.758H13.822a2.761,2.761,0,0,1-2.746-2.178s0-.012-.067-.294l-.386-1.678-.433,1.87-.036.155a2.76,2.76,0,0,1-2.74,2.125H4.879A2.7,2.7,0,0,1,2.1,22.258L.014,3.029A2.186,2.186,0,0,1,0,2.786V2.711A2.636,2.636,0,0,1,2.74,0H5.169A2.717,2.717,0,0,1,7.522,1.244,2.741,2.741,0,0,1,9.874,0H11.4a2.755,2.755,0,0,1,2.363,1.265A2.714,2.714,0,0,1,16.128,0h2.426A2.623,2.623,0,0,1,21.29,2.527l.049,0,.092,0h2.635a2.652,2.652,0,0,1,1.67.575,2.648,2.648,0,0,1,1.67-.575h2A2.738,2.738,0,0,1,31.9,4.139l.478.971a2.612,2.612,0,0,1,2.66-2.587h2.376a2.647,2.647,0,0,1,1.669.575,2.653,2.653,0,0,1,1.67-.575h2A2.738,2.738,0,0,1,45.25,4.139l.478.971a2.612,2.612,0,0,1,2.66-2.587h2.375A2.647,2.647,0,0,1,52.43,3.1a2.6,2.6,0,0,1,1.649-.572h9.329A2.7,2.7,0,0,1,64.956,3a2.676,2.676,0,0,1,1.533-.475h6.087a5.857,5.857,0,0,1,4.315,1.588,4.971,4.971,0,0,1,.6.73,5.064,5.064,0,0,1,.6-.727A5.836,5.836,0,0,1,82.39,2.524h2.839a5.842,5.842,0,0,1,4.311,1.59,5.861,5.861,0,0,1,1.583,4.313V10.1a2.657,2.657,0,0,1-.761,1.9,3.2,3.2,0,0,1,.761,2.129v4.754a5.847,5.847,0,0,1-1.585,4.308A5.845,5.845,0,0,1,85.228,24.772ZM78.022,22.6v0c.108.13.21.243.312.344a5.514,5.514,0,0,0,4.055,1.492h2.839a5.518,5.518,0,0,0,4.07-1.487,5.523,5.523,0,0,0,1.487-4.07V14.123a2.845,2.845,0,0,0-.916-2.15,2.3,2.3,0,0,0,.916-1.876V8.427A5.538,5.538,0,0,0,89.3,4.352a5.517,5.517,0,0,0-4.072-1.49H82.39a5.517,5.517,0,0,0-4.055,1.492A4.742,4.742,0,0,0,77.492,5.5a4.71,4.71,0,0,0-.84-1.147,5.533,5.533,0,0,0-4.077-1.489H66.488a2.337,2.337,0,0,0-1.533.564,2.314,2.314,0,0,0-1.548-.564H54.079a2.27,2.27,0,0,0-1.648.689l-.008-.009-.008-.009a2.315,2.315,0,0,0-1.651-.672H48.389a2.272,2.272,0,0,0-2.324,2.323V6.559L44.947,4.289a2.409,2.409,0,0,0-2.188-1.426h-2a2.315,2.315,0,0,0-1.652.672l-.009.01-.01.011,0-.006a.135.135,0,0,0-.014-.015,2.311,2.311,0,0,0-1.651-.672H35.039a2.272,2.272,0,0,0-2.324,2.323V6.559L31.6,4.289a2.408,2.408,0,0,0-2.188-1.426h-2a2.311,2.311,0,0,0-1.651.672.134.134,0,0,0-.014.015l0,.006-.01-.011-.009-.01a2.315,2.315,0,0,0-1.652-.672H21.43a2.538,2.538,0,0,0-.48.045l0-.035c0-.028,0-.058,0-.087V2.711a2.31,2.31,0,0,0-2.4-2.373H16.128a2.369,2.369,0,0,0-2.36,1.744A2.412,2.412,0,0,0,11.4.338H9.874a2.415,2.415,0,0,0-2.359,1.7A2.372,2.372,0,0,0,5.169.338H2.74a2.31,2.31,0,0,0-2.4,2.373v.075a2,2,0,0,0,.012.207L2.44,22.221a2.374,2.374,0,0,0,2.439,2.212H7.414a2.43,2.43,0,0,0,2.412-1.871l.754-3.252.044-.19c.007.029.552,2.4.731,3.177l.05.216a2.431,2.431,0,0,0,2.417,1.92h2.487a2.374,2.374,0,0,0,2.438-2.2l.359-3.144V22.11a2.272,2.272,0,0,0,2.324,2.323h2.635a2.315,2.315,0,0,0,1.652-.672l.009-.01.01-.011,0,.006a.135.135,0,0,0,.014.015,2.311,2.311,0,0,0,1.651.672h2.389A2.266,2.266,0,0,0,32.1,22.11V20.736l1.118,2.271a2.408,2.408,0,0,0,2.188,1.427h2a2.311,2.311,0,0,0,1.651-.672.134.134,0,0,0,.014-.015l0-.006.01.011.009.01a2.315,2.315,0,0,0,1.652.672h2.388a2.266,2.266,0,0,0,2.311-2.323V20.736l1.118,2.271a2.409,2.409,0,0,0,2.188,1.427h2a2.315,2.315,0,0,0,1.652-.672l.008-.009.008-.009a2.272,2.272,0,0,0,1.648.689h9.329a2.315,2.315,0,0,0,1.548-.564,2.336,2.336,0,0,0,1.533.564h2.487a2.315,2.315,0,0,0,1.652-.672,2.258,2.258,0,0,0,.493-.738,2.3,2.3,0,0,0,2.161,1.41h2.487a2.242,2.242,0,0,0,1.819-.842,2.175,2.175,0,0,0,.435-.993Z" transform="translate(0 0.169)" fill="#fefefe"/>
    <path id="Fill_7" data-name="Fill 7" d="M0,.532V.458Q0,0,.486,0h2.43a.473.473,0,0,1,.536.482l.986,11.852h.123L7.064.445A.526.526,0,0,1,7.621,0H9.143A.526.526,0,0,1,9.7.445l2.466,11.89H12.3L13.337.482A.474.474,0,0,1,13.875,0H16.3q.488,0,.488.458V.532l-2.2,19.251a.471.471,0,0,1-.532.482H11.569a.529.529,0,0,1-.557-.458L8.378,8.351,5.718,19.832a.523.523,0,0,1-.557.433H2.626a.471.471,0,0,1-.532-.482Z" transform="translate(2.253 2.422)" fill="#fefefe"/>
    <path id="Fill_9" data-name="Fill 9" d="M0,.408A.361.361,0,0,1,.408,0H3.044a.4.4,0,0,1,.3.111.4.4,0,0,1,.111.3V17.333a.383.383,0,0,1-.408.408H.408A.361.361,0,0,1,0,17.333Z" transform="translate(21.021 4.946)" fill="#fefefe"/>
    <path id="Fill_11" data-name="Fill 11" d="M0,17.333V.408a.4.4,0,0,1,.111-.3A.4.4,0,0,1,.408,0h2A.485.485,0,0,1,2.87.334l4.763,9.675V.408A.361.361,0,0,1,8.042,0h2.376a.4.4,0,0,1,.3.111.4.4,0,0,1,.111.3V17.333a.383.383,0,0,1-.408.408h-2a.484.484,0,0,1-.458-.334L3.192,7.732v9.6a.355.355,0,0,1-.4.408H.408a.4.4,0,0,1-.3-.111.4.4,0,0,1-.111-.3" transform="translate(26.997 4.946)" fill="#fefefe"/>
    <path id="Fill_13" data-name="Fill 13" d="M0,17.333V.408a.4.4,0,0,1,.111-.3A.4.4,0,0,1,.408,0h2A.485.485,0,0,1,2.87.334l4.763,9.675V.408A.361.361,0,0,1,8.042,0h2.376a.4.4,0,0,1,.3.111.4.4,0,0,1,.111.3V17.333a.383.383,0,0,1-.408.408h-2a.484.484,0,0,1-.458-.334L3.192,7.732v9.6a.355.355,0,0,1-.4.408H.408a.4.4,0,0,1-.3-.111.4.4,0,0,1-.111-.3" transform="translate(40.346 4.946)" fill="#fefefe"/>
    <path id="Fill_15" data-name="Fill 15" d="M0,17.333V.408a.414.414,0,0,1,.105-.3A.364.364,0,0,1,.384,0H9.712a.361.361,0,0,1,.408.408V2.944q0,.433-.408.433H3.452v3.9H8.215q.408,0,.408.433v2.511q0,.433-.408.433H3.452V14.4h6.26a.456.456,0,0,1,.322.086.434.434,0,0,1,.087.309v2.536a.361.361,0,0,1-.408.408H.384a.365.365,0,0,1-.278-.111.414.414,0,0,1-.105-.3" transform="translate(53.696 4.946)" fill="#fefefe"/>
    <path id="Fill_17" data-name="Fill 17" d="M9.688,17.742H7.2a.4.4,0,0,1-.433-.359L5.555,12.4H3.3v4.937a.383.383,0,0,1-.408.409H.409a.4.4,0,0,1-.3-.112.4.4,0,0,1-.112-.3V.409a.4.4,0,0,1,.112-.3A.4.4,0,0,1,.409,0H6.5A3.705,3.705,0,0,1,9.217.928a3.7,3.7,0,0,1,.928,2.722v5.1A3.355,3.355,0,0,1,8.722,11.84l1.312,5.443a.4.4,0,0,1-.034.347A.379.379,0,0,1,9.688,17.742ZM3.3,3.279V9.131H5.827A.9.9,0,0,0,6.842,8.116V4.293A.9.9,0,0,0,5.827,3.279Z" transform="translate(66.08 4.946)" fill="#fefefe"/>
    <path id="Fill_19" data-name="Fill 19" d="M0,14.092V12.446a.361.361,0,0,1,.408-.408H2.969a.361.361,0,0,1,.408.408V13.51a.9.9,0,0,0,1.015,1.014H5.753A.9.9,0,0,0,6.767,13.51V10.949L.693,8.97A.9.9,0,0,1,0,8.042V3.65A3.669,3.669,0,0,1,.938.934,3.668,3.668,0,0,1,3.641,0H6.479A3.675,3.675,0,0,1,9.195.928,3.7,3.7,0,0,1,10.12,3.65V5.32a.36.36,0,0,1-.405.408H7.173a.4.4,0,0,1-.295-.111.4.4,0,0,1-.111-.3V4.256a.891.891,0,0,0-1.014-1H4.367a1.022,1.022,0,0,0-.748.261,1,1,0,0,0-.266.747V6.44L9.471,8.408a.913.913,0,0,1,.65.938V14.1a3.683,3.683,0,0,1-.926,2.716,3.679,3.679,0,0,1-2.715.926H3.641a3.667,3.667,0,0,1-2.7-.934A3.669,3.669,0,0,1,0,14.092" transform="translate(78.749 4.946)" fill="#fefefe"/>
  </g>
</svg>
