<svg xmlns="http://www.w3.org/2000/svg" xmlns:xlink="http://www.w3.org/1999/xlink" width="127.138" height="24.772" viewBox="0 0 127.138 24.772">
  <defs>
    <linearGradient id="linear-gradient" x1="0.5" y1="1" x2="0.5" gradientUnits="objectBoundingBox">
      <stop offset="0" stop-color="#373a94"/>
      <stop offset="1" stop-color="#005c98"/>
    </linearGradient>
  </defs>
  <g id="text_playground" transform="translate(0 -0.169)">
    <path id="Fill_1" data-name="Fill 1" d="M2.323,0A2.266,2.266,0,0,0,0,2.311H0V21.772a2.315,2.315,0,0,0,.672,1.651h0a2.314,2.314,0,0,0,1.651.672H4.959a2.273,2.273,0,0,0,2.324-2.323h0V17.3H8.41A5.51,5.51,0,0,0,12.485,15.8h0q.1-.1.184-.2h0v6.17A2.273,2.273,0,0,0,14.992,24.1h8.054a2.393,2.393,0,0,0,1.137-.279h0a2.412,2.412,0,0,0,1.143.279h2.509a2.3,2.3,0,0,0,2.278-1.834h0l.417-1.716H32.31l.418,1.7A2.292,2.292,0,0,0,34.995,24.1h2.492a2.3,2.3,0,0,0,1.849-.864h0a2.385,2.385,0,0,0,1.9.864h2.437a2.343,2.343,0,0,0,2.422-2.422h0V15.941l2.368-5.361v7.951a5.532,5.532,0,0,0,1.489,4.076h0A5.531,5.531,0,0,0,54.026,24.1h2.845a5.53,5.53,0,0,0,4.059-1.491h0c.092-.092.179-.188.263-.287h0a2.279,2.279,0,0,0,.608,1.1h0a2.314,2.314,0,0,0,1.651.672H65.94a2.314,2.314,0,0,0,1.651-.672h0a2.269,2.269,0,0,0,.493-.738h0A2.3,2.3,0,0,0,70.246,24.1h2.487a2.243,2.243,0,0,0,1.819-.843h0a2.2,2.2,0,0,0,.433-.982h0c.1.116.2.229.3.336h0A5.532,5.532,0,0,0,79.364,24.1h2.845a5.531,5.531,0,0,0,4.076-1.489h0a4.7,4.7,0,0,0,.835-1.138h0a4.693,4.693,0,0,0,.836,1.138h0A5.531,5.531,0,0,0,92.033,24.1h2.845a5.532,5.532,0,0,0,4.076-1.489h0c.088-.088.17-.18.25-.273h0a2.28,2.28,0,0,0,.6,1.09h0a2.314,2.314,0,0,0,1.651.672h2.388a2.267,2.267,0,0,0,2.311-2.323h0V20.4l1.118,2.271a2.4,2.4,0,0,0,2.188,1.427h2a2.315,2.315,0,0,0,1.651-.672h0l.012-.013h0a2.313,2.313,0,0,0,1.677.686H120.9a5.532,5.532,0,0,0,4.076-1.489h0a5.532,5.532,0,0,0,1.489-4.076h0V8.114a5.579,5.579,0,0,0-1.48-4.08h0a5.5,5.5,0,0,0-4.085-1.51H114.81a2.312,2.312,0,0,0-1.677.686h0l-.012-.013h0a2.315,2.315,0,0,0-1.651-.672h-2.376a2.273,2.273,0,0,0-2.323,2.323h0V6.221l-1.118-2.271a2.4,2.4,0,0,0-2.188-1.427h-2a2.314,2.314,0,0,0-1.651.672h0c-.019.019-.036.04-.054.06h0l-.021-.023h0a2.406,2.406,0,0,0-1.713-.709H95.683a2.406,2.406,0,0,0-1.713.709h0a2.424,2.424,0,0,0-.465.648h0a2.423,2.423,0,0,0-.464-.648h0a2.407,2.407,0,0,0-1.713-.709H88.89a2.407,2.407,0,0,0-1.713.709h0a2.407,2.407,0,0,0-.622,1.075h0c-.086-.1-.174-.2-.269-.3h0a5.532,5.532,0,0,0-4.076-1.489H79.364a5.533,5.533,0,0,0-4.076,1.489h0a4.7,4.7,0,0,0-.835,1.138h0a4.7,4.7,0,0,0-.836-1.138h0a5.533,5.533,0,0,0-4.076-1.489H63.454A2.314,2.314,0,0,0,61.8,3.2h0a2.279,2.279,0,0,0-.608,1.1h0c-.084-.1-.171-.195-.264-.287h0a5.53,5.53,0,0,0-4.059-1.49H54.026a5.794,5.794,0,0,0-3.6,1.073h0c-.012-.019-.023-.039-.036-.058h0a2.33,2.33,0,0,0-1.983-1.016H45.873a2.5,2.5,0,0,0-2.348,1.582h0L42.454,6.57,41.378,4.1a2.5,2.5,0,0,0-2.347-1.58H36.495a2.377,2.377,0,0,0-1.657.635h0A2.349,2.349,0,0,0,33.2,2.524H29.634a2.316,2.316,0,0,0-2.3,1.836h0L24.148,17.184a2.407,2.407,0,0,0-1.1-.259h-3.1V4.847a2.273,2.273,0,0,0-2.323-2.323H14.992a2.327,2.327,0,0,0-1.476.514h0a4.75,4.75,0,0,0-1.03-1.549h0A5.531,5.531,0,0,0,8.41,0H2.323Z" transform="translate(0.338 0.507)" fill="url(#linear-gradient)"/>
    <path id="Fill_4" data-name="Fill 4" d="M121.235,24.772h-6.087a2.668,2.668,0,0,1-1.678-.569,2.656,2.656,0,0,1-1.663.569h-2a2.736,2.736,0,0,1-2.49-1.615l-.478-.971a2.606,2.606,0,0,1-2.649,2.587H101.8A2.65,2.65,0,0,1,99.908,24a2.576,2.576,0,0,1-.5-.7,5.913,5.913,0,0,1-4.194,1.471H92.371a5.855,5.855,0,0,1-4.315-1.588,4.962,4.962,0,0,1-.6-.722,5.086,5.086,0,0,1-.6.722,5.859,5.859,0,0,1-4.315,1.588H79.7a5.9,5.9,0,0,1-4.228-1.5,2.482,2.482,0,0,1-.319.531,2.576,2.576,0,0,1-2.084.972H70.583a2.65,2.65,0,0,1-2.16-1.068,2.51,2.51,0,0,1-.255.3,2.651,2.651,0,0,1-1.891.771H63.791A2.65,2.65,0,0,1,61.9,24a2.594,2.594,0,0,1-.5-.712,5.9,5.9,0,0,1-4.189,1.483H54.364a5.858,5.858,0,0,1-4.315-1.588,5.857,5.857,0,0,1-1.588-4.316V12.519L46.769,16.35v5.661a2.67,2.67,0,0,1-2.761,2.76H41.572a2.742,2.742,0,0,1-1.9-.706,2.694,2.694,0,0,1-1.852.706H35.333a2.625,2.625,0,0,1-2.595-2.1l-.356-1.447H31.132l-.353,1.454a2.634,2.634,0,0,1-2.606,2.1H25.663a2.809,2.809,0,0,1-1.142-.24,2.785,2.785,0,0,1-1.137.24H15.331a2.6,2.6,0,0,1-2.661-2.661V16.731a6.022,6.022,0,0,1-3.92,1.248H7.958V22.11A2.6,2.6,0,0,1,5.3,24.772H2.661A2.634,2.634,0,0,1,0,22.11V2.649A2.6,2.6,0,0,1,2.661,0H8.749a5.858,5.858,0,0,1,4.315,1.588,5.085,5.085,0,0,1,.931,1.284,2.658,2.658,0,0,1,1.336-.348h2.635a2.6,2.6,0,0,1,2.661,2.661v11.74h2.758a2.78,2.78,0,0,1,.868.136L27.339,4.622a2.654,2.654,0,0,1,2.632-2.1h3.571a2.7,2.7,0,0,1,1.634.532,2.754,2.754,0,0,1,1.656-.532h2.536a2.832,2.832,0,0,1,2.657,1.783l.766,1.756.76-1.747a2.835,2.835,0,0,1,2.66-1.792h2.536a2.674,2.674,0,0,1,2.1.943,6.292,6.292,0,0,1,3.52-.943h2.846A5.905,5.905,0,0,1,61.4,4.008a2.588,2.588,0,0,1,.5-.713,2.653,2.653,0,0,1,1.89-.771h6.088a5.853,5.853,0,0,1,4.315,1.588,4.907,4.907,0,0,1,.6.721,5.025,5.025,0,0,1,.6-.721A5.857,5.857,0,0,1,79.7,2.524h2.845a5.9,5.9,0,0,1,4.225,1.5,2.763,2.763,0,0,1,2.455-1.5h2.438a2.743,2.743,0,0,1,1.952.809,2.849,2.849,0,0,1,.225.254A2.782,2.782,0,0,1,96.02,2.524h2.339a2.72,2.72,0,0,1,1.728.608,2.642,2.642,0,0,1,1.711-.608h2a2.738,2.738,0,0,1,2.491,1.616l.478.971a2.612,2.612,0,0,1,2.66-2.587h2.375a2.647,2.647,0,0,1,1.663.57,2.669,2.669,0,0,1,1.678-.57h6.087a5.825,5.825,0,0,1,4.325,1.611,5.9,5.9,0,0,1,1.578,4.317V18.868a5.859,5.859,0,0,1-1.588,4.316A5.859,5.859,0,0,1,121.235,24.772Zm-7.764-1.023h0a2.318,2.318,0,0,0,1.677.684h6.087a5.532,5.532,0,0,0,4.076-1.489,5.529,5.529,0,0,0,1.49-4.076V8.452a5.58,5.58,0,0,0-1.481-4.08,5.5,5.5,0,0,0-4.085-1.51h-6.087a2.318,2.318,0,0,0-1.678.685l0,0-.007-.008a2.315,2.315,0,0,0-1.652-.672h-2.375a2.272,2.272,0,0,0-2.324,2.323V6.559L105.99,4.289A2.409,2.409,0,0,0,103.8,2.862h-2a2.315,2.315,0,0,0-1.652.672l-.029.032-.025.027-.01-.011-.01-.011a2.406,2.406,0,0,0-1.713-.709H96.02a2.429,2.429,0,0,0-2.177,1.357,2.429,2.429,0,0,0-2.177-1.357H89.228a2.419,2.419,0,0,0-2.335,1.784c-.1-.113-.18-.207-.269-.3a5.529,5.529,0,0,0-4.076-1.489H79.7a5.529,5.529,0,0,0-4.076,1.489,4.688,4.688,0,0,0-.836,1.138,4.7,4.7,0,0,0-.835-1.138,5.532,5.532,0,0,0-4.076-1.489H63.791a2.311,2.311,0,0,0-1.651.672,2.285,2.285,0,0,0-.608,1.1c-.09-.1-.175-.2-.264-.286a5.528,5.528,0,0,0-4.059-1.49H54.364a5.8,5.8,0,0,0-3.6,1.073l-.015-.024c-.007-.011-.014-.022-.022-.033a2.333,2.333,0,0,0-1.983-1.015H46.211a2.5,2.5,0,0,0-2.347,1.582L42.792,6.908,41.716,4.442a2.5,2.5,0,0,0-2.347-1.58H36.832a2.388,2.388,0,0,0-1.656.635,2.359,2.359,0,0,0-1.634-.635H29.972a2.321,2.321,0,0,0-2.3,1.836L24.486,17.522a2.4,2.4,0,0,0-1.1-.259h-3.1V5.185a2.272,2.272,0,0,0-2.324-2.323H15.331a2.314,2.314,0,0,0-1.476.514,4.763,4.763,0,0,0-1.03-1.549A5.532,5.532,0,0,0,8.749.337H2.661A2.267,2.267,0,0,0,.338,2.649V22.11a2.3,2.3,0,0,0,2.324,2.323H5.3A2.272,2.272,0,0,0,7.62,22.11V17.642H8.749a5.509,5.509,0,0,0,4.074-1.506c.06-.061.122-.127.184-.2v6.17a2.272,2.272,0,0,0,2.324,2.323h8.054a2.409,2.409,0,0,0,1.137-.278,2.43,2.43,0,0,0,1.142.278h2.509A2.3,2.3,0,0,0,30.45,22.6l.417-1.717h1.782l.418,1.7a2.3,2.3,0,0,0,2.267,1.846h2.491a2.311,2.311,0,0,0,1.849-.863,2.376,2.376,0,0,0,1.9.863h2.436a2.343,2.343,0,0,0,2.423-2.422V16.279L48.8,10.918v7.951a5.532,5.532,0,0,0,1.489,4.076,5.532,5.532,0,0,0,4.076,1.489h2.846a5.533,5.533,0,0,0,4.06-1.49c.085-.085.171-.179.263-.286a2.283,2.283,0,0,0,.608,1.1,2.311,2.311,0,0,0,1.651.672h2.487a2.315,2.315,0,0,0,1.651-.672,2.258,2.258,0,0,0,.493-.738,2.3,2.3,0,0,0,2.161,1.41H73.07a2.242,2.242,0,0,0,1.819-.842,2.181,2.181,0,0,0,.433-.982c.1.125.2.235.3.336A5.529,5.529,0,0,0,79.7,24.433h2.845a5.529,5.529,0,0,0,4.076-1.489,4.715,4.715,0,0,0,.836-1.138,4.705,4.705,0,0,0,.835,1.138,5.532,5.532,0,0,0,4.076,1.489h2.846a5.532,5.532,0,0,0,4.076-1.489c.079-.079.16-.168.25-.273a2.283,2.283,0,0,0,.6,1.089,2.315,2.315,0,0,0,1.652.672h2.388A2.266,2.266,0,0,0,106.5,22.11V20.736l1.118,2.271a2.409,2.409,0,0,0,2.188,1.426h2a2.315,2.315,0,0,0,1.652-.672.074.074,0,0,0,.011-.012Z" transform="translate(0 0.169)" fill="#fefefe"/>
    <path id="Fill_7" data-name="Fill 7" d="M3.044,20.265H.409a.4.4,0,0,1-.3-.112.4.4,0,0,1-.112-.3V.4A.357.357,0,0,1,.409,0H6.5A3.705,3.705,0,0,1,9.217.928a3.7,3.7,0,0,1,.928,2.722V9.824a3.7,3.7,0,0,1-.934,2.709,3.678,3.678,0,0,1-2.715.941H3.452v6.384A.362.362,0,0,1,3.044,20.265ZM3.452,3.341v6.791H5.679A.9.9,0,0,0,6.693,9.118V4.355A.9.9,0,0,0,5.679,3.341Z" transform="translate(2.253 2.422)" fill="#fefefe"/>
    <path id="Fill_9" data-name="Fill 9" d="M0,.408a.4.4,0,0,1,.111-.3A.4.4,0,0,1,.408,0H3.044a.361.361,0,0,1,.408.408V14.4H8.462a.356.356,0,0,1,.408.4v2.536a.361.361,0,0,1-.408.408H.408A.361.361,0,0,1,0,17.333Z" transform="translate(14.922 4.946)" fill="#fefefe"/>
    <path id="Fill_11" data-name="Fill 11" d="M12.522,17.742H10.031a.39.39,0,0,1-.4-.364L8.849,14.19H4.058l-.776,3.2a.392.392,0,0,1-.412.353H.362c-.24,0-.362-.092-.362-.273a.6.6,0,0,1,.024-.161L4.231.359A.409.409,0,0,1,4.67,0H8.24a.4.4,0,0,1,.438.345l4.207,16.95a.6.6,0,0,1,.024.153C12.91,17.643,12.779,17.742,12.522,17.742ZM6.439,4.372h0L4.77,11.258H8.13L6.44,4.372Z" transform="translate(25.302 4.946)" fill="#fefefe"/>
    <path id="Fill_13" data-name="Fill 13" d="M.062.594A.513.513,0,0,1,0,.365.322.322,0,0,1,.062.173.434.434,0,0,1,.458,0H2.994a.583.583,0,0,1,.582.408l2.845,6.52L9.254.408A.582.582,0,0,1,9.836,0h2.536a.435.435,0,0,1,.4.173.333.333,0,0,1,.062.2.611.611,0,0,1-.049.223L8.141,11.1v6.136a.448.448,0,0,1-.507.507H5.2a.448.448,0,0,1-.507-.507V11.1Z" transform="translate(36.375 4.946)" fill="#fefefe"/>
    <path id="Fill_15" data-name="Fill 15" d="M0,14.092V3.65A3.69,3.69,0,0,1,.928.928,3.689,3.689,0,0,1,3.65,0H6.5A3.683,3.683,0,0,1,9.2.934a3.665,3.665,0,0,1,.94,2.716V5.53a.383.383,0,0,1-.408.408H7.349a.355.355,0,0,1-.4-.408V4.293A.9.9,0,0,0,5.939,3.279H4.318A.9.9,0,0,0,3.3,4.293v9.168a.9.9,0,0,0,1.015,1.015H5.939a.9.9,0,0,0,1.015-1.015v-2.2H5.629a.361.361,0,0,1-.408-.408V8.314a.361.361,0,0,1,.408-.408H9.737a.361.361,0,0,1,.408.408v5.778a3.665,3.665,0,0,1-.94,2.716,3.682,3.682,0,0,1-2.709.934H3.65a3.689,3.689,0,0,1-2.722-.928A3.689,3.689,0,0,1,0,14.092" transform="translate(50.714 4.946)" fill="#fefefe"/>
    <path id="Fill_17" data-name="Fill 17" d="M9.688,17.742H7.2a.4.4,0,0,1-.433-.359L5.555,12.4H3.3v4.937a.383.383,0,0,1-.408.409H.409a.4.4,0,0,1-.3-.112.4.4,0,0,1-.112-.3V.409a.4.4,0,0,1,.112-.3A.4.4,0,0,1,.409,0H6.5A3.705,3.705,0,0,1,9.217.928a3.7,3.7,0,0,1,.928,2.722v5.1A3.355,3.355,0,0,1,8.722,11.84l1.312,5.443a.4.4,0,0,1-.034.347A.379.379,0,0,1,9.688,17.742ZM3.3,3.279V9.131H5.827A.9.9,0,0,0,6.842,8.116V4.293A.9.9,0,0,0,5.827,3.279Z" transform="translate(63.383 4.946)" fill="#fefefe"/>
    <path id="Fill_19" data-name="Fill 19" d="M6.5,17.742H3.65a3.705,3.705,0,0,1-2.722-.928A3.706,3.706,0,0,1,0,14.091V3.65A3.705,3.705,0,0,1,.928.928,3.705,3.705,0,0,1,3.65,0H6.5A3.705,3.705,0,0,1,9.217.928a3.7,3.7,0,0,1,.928,2.722V14.091a3.7,3.7,0,0,1-.928,2.722A3.705,3.705,0,0,1,6.5,17.742ZM4.318,3.279A.9.9,0,0,0,3.3,4.293V13.46a.9.9,0,0,0,1.015,1.015H5.939A.9.9,0,0,0,6.953,13.46V4.293A.9.9,0,0,0,5.939,3.279Z" transform="translate(76.052 4.946)" fill="#fefefe"/>
    <path id="Fill_21" data-name="Fill 21" d="M0,14.092V.507A.489.489,0,0,1,.148.148.489.489,0,0,1,.507,0H2.945A.489.489,0,0,1,3.3.148a.489.489,0,0,1,.148.359V13.386A.9.9,0,0,0,4.466,14.4H5.778a.9.9,0,0,0,1.015-1.015V.507A.489.489,0,0,1,6.941.148.489.489,0,0,1,7.3,0H9.638A.489.489,0,0,1,10,.148a.489.489,0,0,1,.148.359V14.092a3.688,3.688,0,0,1-.928,2.722,3.689,3.689,0,0,1-2.722.928H3.65a3.689,3.689,0,0,1-2.722-.928A3.689,3.689,0,0,1,0,14.092" transform="translate(88.721 4.946)" fill="#fefefe"/>
    <path id="Fill_23" data-name="Fill 23" d="M0,17.333V.408a.4.4,0,0,1,.111-.3A.4.4,0,0,1,.408,0h2A.485.485,0,0,1,2.87.334l4.763,9.675V.408A.361.361,0,0,1,8.042,0h2.376a.4.4,0,0,1,.3.111.4.4,0,0,1,.111.3V17.333a.383.383,0,0,1-.408.408h-2a.485.485,0,0,1-.458-.334L3.192,7.732v9.6a.355.355,0,0,1-.4.408H.408a.4.4,0,0,1-.3-.111.4.4,0,0,1-.111-.3" transform="translate(101.39 4.946)" fill="#fefefe"/>
    <path id="Fill_25" data-name="Fill 25" d="M6.5,17.742H.409A.362.362,0,0,1,0,17.333V.409A.362.362,0,0,1,.409,0H6.5a3.676,3.676,0,0,1,2.722.94,3.746,3.746,0,0,1,.928,2.734V14.091a3.706,3.706,0,0,1-.928,2.722A3.705,3.705,0,0,1,6.5,17.742ZM3.452,3.353V14.4H5.778a.9.9,0,0,0,1.014-1.014V4.392A.91.91,0,0,0,5.778,3.353Z" transform="translate(114.739 4.946)" fill="#fefefe"/>
  </g>
</svg>
