<svg xmlns="http://www.w3.org/2000/svg" xmlns:xlink="http://www.w3.org/1999/xlink" width="132.619" height="39.965" viewBox="0 0 132.619 39.965">
  <defs>
    <clipPath id="clip-path">
      <path id="Clip_2" data-name="Clip 2" d="M0,0H64.184V14.464H0Z" transform="translate(0.345 0.476)" fill="none"/>
    </clipPath>
  </defs>
  <g id="amazon_logo" data-name="amazon logo" transform="translate(0)">
    <g id="Group_3" data-name="Group 3" transform="translate(18.313 25.025)">
      <path id="Clip_2-2" data-name="Clip 2" d="M0,0H64.184V14.464H0Z" transform="translate(0.345 0.476)" fill="none"/>
      <g id="Group_3-2" data-name="Group 3" clip-path="url(#clip-path)">
        <path id="Fill_1" data-name="Fill 1" d="M63.616,5.754c-7.705,5.686-18.876,8.71-28.5,8.71A51.568,51.568,0,0,1,.312,1.185C-.41.533.234-.356,1.1.148A70.066,70.066,0,0,0,35.93,9.39,69.294,69.294,0,0,0,62.5,3.953c1.3-.552,2.395.858,1.12,1.8" transform="translate(0.345 0.476)" fill="#f90"/>
      </g>
    </g>
    <path id="Fill_4" data-name="Fill 4" d="M9.637,3.479c-.986-1.262-6.514-.6-9-.3-.752.09-.869-.567-.191-1.043C4.858-.962,12.085-.068,12.925.969S12.7,9.262,8.57,12.719c-.636.532-1.241.248-.959-.454.93-2.323,3.013-7.523,2.026-8.786" transform="translate(75.844 24.114)" fill="#f90"/>
    <path id="Fill_6" data-name="Fill 6" d="M.77,3.774V.763A.744.744,0,0,1,1.533,0H15.025A.751.751,0,0,1,15.8.76V3.342a4.236,4.236,0,0,1-1.015,1.895L7.8,15.214a14.968,14.968,0,0,1,7.7,1.653,1.377,1.377,0,0,1,.716,1.174v3.213c0,.442-.485.955-.994.688A15.536,15.536,0,0,0,.96,21.969c-.469.25-.96-.255-.96-.7V18.218a3.633,3.633,0,0,1,.5-2.069L8.6,4.533H1.549a.751.751,0,0,1-.78-.758" transform="translate(75.887 0.591)" fill="#fff"/>
    <path id="Fill_8" data-name="Fill 8" d="M9.234,23.406a8.2,8.2,0,0,1-6.858-3.43A14.121,14.121,0,0,1,0,11.66a13.731,13.731,0,0,1,2.39-8.29A8.229,8.229,0,0,1,9.234,0a8.356,8.356,0,0,1,6.978,3.447,14.06,14.06,0,0,1,2.409,8.434,13.261,13.261,0,0,1-2.538,8.173A8.435,8.435,0,0,1,9.234,23.406ZM9.271,4.3c-2.852,0-3.217,3.577-3.217,6.692v.089a22.482,22.482,0,0,0,.4,4.967c.476,2,1.413,3.012,2.784,3.012,3.334,0,3.334-5,3.334-7.136a19.56,19.56,0,0,0-.615-5.586A2.559,2.559,0,0,0,9.271,4.3Z" transform="translate(94.071 0.203)" fill="#fff"/>
    <path id="Fill_10" data-name="Fill 10" d="M6.143,23.458a6.127,6.127,0,0,1-4.367-1.6A6.47,6.47,0,0,1,0,17.06a7.23,7.23,0,0,1,1.224-4.187,7.2,7.2,0,0,1,3.154-2.521,22.97,22.97,0,0,1,6.569-1.3c.4-.041.782-.079,1.148-.12,0-.024.186-2.589-.5-3.51a2.851,2.851,0,0,0-2.3-1.067H9.278A3.134,3.134,0,0,0,6.007,6.768c-.082.45-.4.8-.725.8l-.049,0L1.3,7.142a.757.757,0,0,1-.494-.3.7.7,0,0,1-.119-.561A6.935,6.935,0,0,1,4.157,1.332,11.746,11.746,0,0,1,9.868,0c.951,0,4.207.147,6.182,2.043,1.835,1.716,1.822,4,1.808,6.412,0,.216,0,.434,0,.653V15.5a5.139,5.139,0,0,0,1.307,3.476c.082.11.162.218.241.327a.777.777,0,0,1-.013,1.091c-.81.68-3.06,2.633-3.156,2.716a.888.888,0,0,1-.583.2.653.653,0,0,1-.388-.1,10.79,10.79,0,0,1-2.354-2.735C10.665,22.761,9.084,23.458,6.143,23.458Zm5.951-11.24a9.185,9.185,0,0,0-4.165.755A3.51,3.51,0,0,0,5.99,16.348c0,1.837.957,2.978,2.5,2.978a3.312,3.312,0,0,0,2.84-1.866,7.7,7.7,0,0,0,.768-4.145v-1.1Z" transform="translate(53.808)" fill="#fff"/>
    <path id="Fill_12" data-name="Fill 12" d="M6.143,23.458a6.127,6.127,0,0,1-4.367-1.6A6.47,6.47,0,0,1,0,17.06a7.23,7.23,0,0,1,1.224-4.187,7.2,7.2,0,0,1,3.154-2.521,22.974,22.974,0,0,1,6.57-1.3c.4-.041.78-.079,1.147-.12,0-.024.185-2.589-.5-3.51a2.851,2.851,0,0,0-2.3-1.067H9.278A3.134,3.134,0,0,0,6.007,6.768c-.082.45-.4.8-.725.8l-.049,0L1.3,7.142a.757.757,0,0,1-.494-.3.7.7,0,0,1-.119-.561A6.935,6.935,0,0,1,4.157,1.332,11.746,11.746,0,0,1,9.868,0c.951,0,4.206.147,6.182,2.043,1.835,1.716,1.822,4,1.808,6.412,0,.216,0,.434,0,.653V15.5a5.139,5.139,0,0,0,1.307,3.476c.082.11.162.218.241.327a.777.777,0,0,1-.013,1.091c-.81.68-3.06,2.633-3.156,2.716a.89.89,0,0,1-.583.2.653.653,0,0,1-.388-.1,10.79,10.79,0,0,1-2.354-2.735C10.665,22.761,9.084,23.458,6.143,23.458ZM12.1,12.217a9.188,9.188,0,0,0-4.166.755A3.51,3.51,0,0,0,5.99,16.348c0,1.837.956,2.978,2.5,2.978a3.313,3.313,0,0,0,2.841-1.866,7.7,7.7,0,0,0,.769-4.145v-1.1Z" transform="translate(0)" fill="#fff"/>
    <path id="Fill_15" data-name="Fill 15" d="M5.632,11.038c0-2.439-.115-5.806,2.835-5.806C11.379,5.232,11,8.689,11,11.038l0,11.168a.77.77,0,0,0,.737.757h4.1a.774.774,0,0,0,.791-.758V11.038A12.767,12.767,0,0,1,17.011,7a2.723,2.723,0,0,1,2.453-1.729,2.139,2.139,0,0,1,2.413,1.818,26.932,26.932,0,0,1,.115,3.945V22.206a.769.769,0,0,0,.736.757h4.1a.774.774,0,0,0,.792-.758l0-13.294c0-2.261.267-4.831-1.035-6.605A5.824,5.824,0,0,0,21.84,0a5.83,5.83,0,0,0-5.671,3.9C15.019,1.241,13.41,0,10.843,0a5.415,5.415,0,0,0-5.4,3.9H5.364V1.211A.767.767,0,0,0,4.6.444H.767A.767.767,0,0,0,0,1.211V22.2a.767.767,0,0,0,.767.767h4.1a.767.767,0,0,0,.767-.767Z" transform="translate(22.604 0.203)" fill="#fff"/>
    <path id="Fill_17" data-name="Fill 17" d="M5.632,22.2a.767.767,0,0,1-.767.767H.767A.767.767,0,0,1,0,22.2V1.211A.767.767,0,0,1,.767.444h3.79a.755.755,0,0,1,.766.6V4.255H5.4C6.552,1.373,8.16,0,11,0a5.379,5.379,0,0,1,4.789,2.483C16.858,4.167,16.858,7,16.858,9.043V22.3a.778.778,0,0,1-.787.663H11.958a.773.773,0,0,1-.731-.663l.007-12.729c0-4.259-1.632-4.384-2.573-4.384A2.807,2.807,0,0,0,6.3,6.84a9.507,9.507,0,0,0-.667,4.022Z" transform="translate(115.761 0.204)" fill="#fff"/>
  </g>
</svg>
