<svg xmlns="http://www.w3.org/2000/svg" xmlns:xlink="http://www.w3.org/1999/xlink" width="400" height="129" viewBox="0 0 400 129">
  <defs>
    <radialGradient id="b" cx="73.044%" cy="44.503%" r="29.163%" fx="73.044%" fy="44.503%" gradientTransform="scale(1 .7607) rotate(-78.939 .815 .515)">
      <stop offset="0%" stop-color="#626262"/>
      <stop offset="100%" stop-color="#FFFFFF"/>
    </radialGradient>
    <path id="a" d="M49.9466278,5.86639832 C49.3099098,5.86639832 48.6657665,5.98796465 48.0438991,6.24979983 L8.91265957,22.5789635 C7.68006265,23.0932826 6.71848855,24.0602025 6.20985669,25.3020493 C5.69751219,26.5420259 5.69751219,27.9091795 6.20985669,29.1510264 L43.5720226,120.028405 C44.6264128,122.592519 47.5593994,123.813793 50.0932771,122.751491 L89.2245166,106.420457 C91.7695323,105.358154 92.9817097,102.410638 91.9291758,99.8465235 L54.5670099,8.97101539 C53.7706483,7.03530535 51.9069024,5.86639832 49.9466278,5.86639832 M48.19983,129 C43.9525684,129 39.9150709,126.46581 38.190549,122.274577 L0.828383095,31.3953279 C-0.276127698,28.7077768 -0.276127698,25.7452988 0.828383095,23.0558775 C1.93475021,20.3664562 4.01382935,18.2717748 6.68321846,17.1589754 L45.814458,0.827941457 C51.3203051,-1.46685682 57.6614964,1.17206769 59.9466272,6.72484364 L97.3087931,97.602222 C99.5883549,103.154998 96.9635175,109.541906 91.4558141,111.840445 L52.3245745,128.171479 C50.9750294,128.734424 49.5753636,129 48.19983,129"/>
    <linearGradient id="c" x1="21.005%" x2="71.275%" y1="100%" y2="70.933%">
      <stop offset="0%" stop-color="#D3D0DD"/>
      <stop offset="100%" stop-color="#FFFFFF"/>
    </linearGradient>
    <radialGradient id="e" cx="61.725%" cy="52.493%" r="38.332%" fx="61.725%" fy="52.493%" gradientTransform="matrix(0 1 -1.64794 0 1.482 -.092)">
      <stop offset="0%" stop-color="#DAD7E2"/>
      <stop offset="58.183%" stop-color="#D9D6E2"/>
      <stop offset="100%" stop-color="#FFFFFF" stop-opacity="0"/>
    </radialGradient>
    <path id="d" d="M83.2150338,67.023116 C71.988256,71.7137778 62.616159,78.1972646 56.4767186,86 L40.6542056,47.4298309 C47.3671819,39.2756717 56.1638809,33.145488 67.3906587,28.4548262 C78.6211607,23.7641645 89.9615284,21.4827288 99.5961856,22.8076153 L115.420561,61.375905 C105.413478,60.3197544 94.4436737,62.3343335 83.2150338,67.023116"/>
  </defs>
  <g fill="none" fill-rule="evenodd">
    <path fill="#FFFFFF" d="M151.718022,78.859874 L157.255077,78.859874 C157.692213,78.859874 158.032208,78.6654723 158.17792,78.1794681 L164.589247,57.9130916 C164.686388,57.5242882 165.074953,57.5242882 165.220665,57.9130916 L172.846259,78.0336668 C173.040541,78.5682715 173.331965,78.859874 173.866243,78.859874 L177.314759,78.859874 C177.800466,78.859874 178.189031,78.6168719 178.383314,78.0336668 L185.766054,57.9130916 C185.911766,57.5242882 186.348902,57.5242882 186.446043,57.9130916 L192.711658,78.1794681 C192.8088,78.5682715 193.100224,78.859874 193.58593,78.859874 L199.46298,78.859874 C200.045828,78.859874 200.385822,78.4224702 200.19154,77.7906647 L190.525979,46.589193 C190.380267,46.1517891 190.040272,45.8115862 189.603136,45.8115862 L184.648929,45.8115862 C184.211793,45.8115862 183.823228,46.2003896 183.677516,46.589193 L176.051922,66.2723644 C175.90621,66.7097682 175.517645,66.6611678 175.371933,66.2723644 L167.697769,46.589193 C167.552057,46.2003896 167.163492,45.8115862 166.726356,45.8115862 L161.772148,45.8115862 C161.335013,45.8115862 160.995018,46.1517891 160.849306,46.589193 L150.989462,77.7906647 C150.79518,78.4710706 151.135174,78.859874 151.718022,78.859874 Z M214.811308,79.4916795 C207.331427,79.4916795 201.794372,73.8540304 201.794372,66.6611678 C201.794372,59.4197047 207.331427,53.830656 214.811308,53.830656 C222.33976,53.830656 227.828245,59.4197047 227.828245,66.6611678 C227.828245,73.8540304 222.33976,79.4916795 214.811308,79.4916795 Z M214.811308,73.465227 C218.356966,73.465227 221.222635,70.4034003 221.222635,66.6611678 C221.222635,62.8703347 218.356966,59.8571085 214.811308,59.8571085 C211.314221,59.8571085 208.399981,62.8703347 208.399981,66.6611678 C208.399981,70.4034003 211.314221,73.465227 214.811308,73.465227 Z M246.090813,79.4916795 C243.225144,79.4916795 241.282317,78.3252693 239.485203,76.8672566 C238.999496,76.4784533 238.562361,76.6242545 238.562361,77.3046604 L238.562361,77.9364659 C238.562361,78.4224702 238.173795,78.859874 237.688089,78.859874 L233.122447,78.859874 C232.63674,78.859874 232.199604,78.4224702 232.199604,77.9364659 L232.199604,46.7349942 C232.199604,46.24899 232.63674,45.8115862 233.122447,45.8115862 L237.930942,45.8115862 C238.416649,45.8115862 238.805214,46.24899 238.805214,46.7349942 L238.805214,55.6288717 C238.805214,56.2606772 239.24235,56.4550789 239.922339,55.9690746 C241.379459,54.8998653 243.516568,53.830656 246.285095,53.830656 C252.939276,53.830656 258.039195,59.4683051 258.039195,66.6611678 C258.039195,73.8540304 252.842134,79.4916795 246.090813,79.4916795 Z M244.973688,73.4166266 C248.567916,73.4166266 251.433585,70.4034003 251.433585,66.6611678 C251.433585,62.8703347 248.567916,59.8571085 244.973688,59.8571085 C241.4766,59.8571085 238.610931,62.8217343 238.610931,66.6611678 C238.610931,70.4520008 241.428029,73.4166266 244.973688,73.4166266 Z M265.76193,51.7894382 C267.753327,51.7894382 269.4533,50.0884234 269.4533,48.0958061 C269.4533,46.1031887 267.753327,44.4021739 265.76193,44.4021739 C263.770533,44.4021739 262.07056,46.1031887 262.07056,48.0958061 C262.07056,50.0884234 263.770533,51.7894382 265.76193,51.7894382 Z M263.284826,78.859874 L268.093321,78.859874 C268.579028,78.859874 269.016164,78.4224702 269.016164,77.9364659 L269.016164,55.3858696 C269.016164,54.8998653 268.579028,54.4624615 268.093321,54.4624615 L263.284826,54.4624615 C262.799119,54.4624615 262.410554,54.8998653 262.410554,55.3858696 L262.410554,77.9364659 C262.410554,78.4224702 262.799119,78.859874 263.284826,78.859874 Z M283.344508,79.1028761 C283.830215,79.1028761 284.267351,78.7140727 284.267351,78.2280685 L284.267351,74.2428338 C284.267351,73.7082291 283.830215,73.3194257 283.344508,73.3194257 C281.644535,73.3194257 280.964546,72.2988169 280.964546,70.7436033 L280.964546,46.7349942 C280.964546,46.24899 280.52741,45.8115862 280.041703,45.8115862 L275.233208,45.8115862 C274.747502,45.8115862 274.358936,46.24899 274.358936,46.7349942 L274.358936,70.597802 C274.358936,77.0130579 276.933181,79.1028761 283.344508,79.1028761 Z M298.887119,79.4916795 C291.504379,79.4916795 286.258748,74.0970325 286.258748,66.7583686 C286.258748,59.3711043 291.698662,53.830656 298.984261,53.830656 C306.221289,53.830656 311.515491,59.4683051 311.515491,66.8555694 C311.515491,67.7303771 311.272637,68.4593834 310.398365,68.4593834 L293.690059,68.4593834 C293.252923,68.4593834 293.107211,68.7023855 293.155781,69.0911889 C293.495776,71.861413 295.924309,73.9026308 299.081402,73.9026308 C301.16994,73.9026308 302.675631,72.9792228 303.695614,71.8128126 C304.229892,71.2296075 304.667028,71.0352058 305.249876,71.0352058 L309.718376,71.0352058 C310.495507,71.0352058 310.835501,71.5698105 310.544077,72.3474173 C308.941246,76.4784533 304.375604,79.4916795 298.887119,79.4916795 Z M293.738629,64.5227491 L303.987038,64.5227491 C304.327033,64.5227491 304.472745,64.3769479 304.424174,63.9881445 C303.938468,61.412322 301.655647,59.4197047 298.887119,59.4197047 C296.215733,59.4197047 293.981483,61.3151212 293.350064,63.8423432 C293.252923,64.1825462 293.301493,64.5227491 293.738629,64.5227491 Z M316.217504,78.859874 C315.731797,78.859874 315.343232,78.4224702 315.343232,77.9364659 L315.343232,46.7349942 C315.343232,46.24899 315.731797,45.8115862 316.217504,45.8115862 L331.517262,45.8115862 C338.511437,45.8115862 343.271361,49.8940217 343.271361,56.7466814 C343.271361,63.4535398 337.880018,67.8275779 331.177267,67.8275779 L323.065967,67.8275779 C322.483119,67.8275779 322.191695,68.1677809 322.191695,68.750986 L322.191695,77.9364659 C322.191695,78.4224702 321.754559,78.859874 321.268853,78.859874 L316.217504,78.859874 Z M323.017396,62.1899288 L331.177267,62.1899288 C334.528642,62.1899288 336.374328,59.3225038 336.374328,56.7952818 C336.374328,54.1222586 334.577213,51.5950366 331.177267,51.5950366 L323.017396,51.5950366 C322.434548,51.5950366 322.191695,51.8866391 322.191695,52.4698442 L322.191695,61.3151212 C322.191695,61.8983263 322.434548,62.1899288 323.017396,62.1899288 Z M357.569816,79.4916795 C351.061348,79.4916795 345.621434,73.9998317 345.621434,66.6611678 C345.621434,59.2739034 351.158489,53.830656 357.666957,53.830656 C360.435485,53.830656 362.378311,54.8998653 364.126855,56.3092776 C364.563991,56.698081 365.049697,56.6494806 365.049697,56.0662755 L365.049697,55.3372691 C365.049697,54.8512649 365.438263,54.4624615 365.923969,54.4624615 L370.489611,54.4624615 C370.975318,54.4624615 371.412454,54.8998653 371.412454,55.3858696 L371.412454,71.4726097 C371.412454,72.6876202 371.84959,73.2222249 372.675291,73.2708253 C373.112427,73.3194257 373.500992,73.6110283 373.500992,74.0484321 L373.500992,78.2766689 C373.500992,78.7140727 373.160998,79.1028761 372.675291,79.1028761 C369.469627,79.1028761 367.575372,78.1794681 366.506817,76.332652 C366.215393,75.8466477 365.875399,75.7494469 365.389692,76.2354511 C363.446866,78.0336668 361.212615,79.4916795 357.569816,79.4916795 Z M358.686941,73.465227 C362.232599,73.465227 365.049697,70.4520008 365.049697,66.6611678 C365.049697,62.8217343 362.232599,59.8571085 358.686941,59.8571085 C355.092712,59.8571085 352.275614,62.8703347 352.275614,66.6611678 C352.275614,70.4034003 355.092712,73.465227 358.686941,73.465227 Z M376.433913,88.3369565 C383.525229,88.3369565 387.070887,85.3723307 390.422263,77.4504617 L399.602117,55.6288717 C399.84497,55.0456666 399.407834,54.4624615 398.776416,54.4624615 L394.162203,54.4624615 C393.676497,54.4624615 393.433643,54.7540641 393.239361,55.2400683 L387.896588,68.2163813 C387.459452,69.2369902 386.876604,69.2855906 386.439468,68.2649817 L380.853843,55.3372691 C380.65956,54.8512649 380.368136,54.4624615 379.88243,54.4624615 L375.073934,54.4624615 C374.491086,54.4624615 374.00538,54.9970662 374.296804,55.774673 L383.233805,75.992449 C383.525229,76.6728549 383.62237,77.2074596 383.428088,77.9364659 C382.748098,80.9010918 379.639576,82.6021066 376.433913,82.6021066 C375.948206,82.6021066 375.51107,82.99091 375.51107,83.4769142 L375.51107,87.4135485 C375.51107,87.8995527 375.948206,88.3369565 376.433913,88.3369565 Z"/>
    <use fill="#FFFFFF" xlink:href="#a"/>
    <use fill="url(#b)" xlink:href="#a"/>
    <use fill="url(#c)" xlink:href="#d"/>
    <use fill="url(#e)" xlink:href="#d"/>
    <path fill="#FFFFFF" d="M88.5495334,78.8480181 C76.3575433,78.8461556 65.2007046,81.1966246 56.5420561,85.9906875 L56.5476616,47.3401853 C65.8733661,42.4418227 76.3631488,40.1937908 88.5551389,40.1956533 C100.747129,40.1975158 112.130057,42.4492726 120.560748,47.3494977 L120.555142,86 C111.679747,81.2022121 100.741523,78.8498806 88.5495334,78.8480181"/>
  </g>
</svg>
